<svg width="14" height="9" viewBox="0 0 14 9" fill="none" xmlns="http://www.w3.org/2000/svg">
<path d="M6.45123 0.399961C6.51239 0.327789 6.59422 0.268778 6.68969 0.228011C6.78515 0.187244 6.89138 0.165944 6.99923 0.165944C7.10707 0.165944 7.2133 0.187244 7.30877 0.228011C7.40423 0.268778 7.48607 0.327789 7.54723 0.399961L13.5472 7.44163C13.6167 7.52285 13.6574 7.61798 13.665 7.71668C13.6726 7.81539 13.6467 7.9139 13.5902 8.0015C13.5337 8.0891 13.4488 8.16245 13.3446 8.21358C13.2404 8.26471 13.1209 8.29166 12.9992 8.2915H0.999225C0.877788 8.2911 0.758784 8.2638 0.655012 8.21255C0.551241 8.1613 0.466627 8.08803 0.410271 8.00063C0.353915 7.91323 0.327949 7.815 0.335165 7.71651C0.342381 7.61801 0.382506 7.52298 0.451225 7.44163L6.45123 0.399961Z" fill="#787878"/>
</svg>
