<svg width="20" height="20" viewBox="0 0 20 20" fill="none" xmlns="http://www.w3.org/2000/svg">
<path fill-rule="evenodd" clip-rule="evenodd" d="M11.4646 1.82791C10.9927 1.72207 10.5024 1.66634 10 1.66634C6.3181 1.66634 3.33333 4.65111 3.33333 8.33299V11.3209L2.98811 11.6666C2.67624 11.9788 2.5 12.4023 2.5 12.8447V13.3328C2.5 14.253 3.24583 14.9998 4.16667 14.9998L6.66667 14.9998C6.66672 16.8407 8.15908 18.333 10 18.333C11.841 18.333 13.3333 16.8406 13.3333 14.9997H15.8333C16.7538 14.9997 17.5 14.2535 17.5 13.333V12.8447C17.5 12.4023 17.3241 11.9787 17.0119 11.6664L16.6667 11.3212V8.33319C17.6775 7.57391 18.3333 6.36378 18.3333 4.99967C18.3333 2.69849 16.4679 0.833008 14.1667 0.833008C13.1357 0.833008 12.1916 1.20819 11.4646 1.82791ZM12.3478 3.28447C12.8047 2.80018 13.45 2.49967 14.1667 2.49967C15.5474 2.49967 16.6667 3.61896 16.6667 4.99967C16.6667 5.92899 16.16 6.741 15.4039 7.17274C15.0398 7.38061 14.6184 7.49967 14.1667 7.49967C12.786 7.49967 11.6667 6.38039 11.6667 4.99967C11.6667 4.36405 11.9028 3.78543 12.2935 3.3439C12.3125 3.32505 12.3307 3.30522 12.3478 3.28447ZM15 9.08283C14.7305 9.1376 14.4518 9.16634 14.1667 9.16634C11.8655 9.16634 10 7.30086 10 4.99967C10 4.41186 10.122 3.85198 10.342 3.34449C10.229 3.33688 10.115 3.33301 10 3.33301C7.23857 3.33301 5 5.57159 5 8.33299V11.435C5 11.8047 4.85301 12.1579 4.59277 12.4184L4.16715 12.8446L4.16667 13.3328L15.8333 13.333V12.8447L15.4077 12.4192C15.1464 12.1579 15 11.8037 15 11.4348V9.08283ZM11.6667 14.9997L8.33333 14.9997C8.33337 15.9202 9.07955 16.6663 10 16.6663C10.9205 16.6663 11.6667 15.9201 11.6667 14.9997Z" fill="#737373"/>
</svg>
