<svg width="29" height="29" viewBox="0 0 29 29" fill="none" xmlns="http://www.w3.org/2000/svg">
<path d="M1.20898 25.3748L14.5007 2.4165L27.7923 25.3748H1.20898ZM14.5007 21.7498C14.843 21.7498 15.1302 21.6338 15.3622 21.4018C15.5942 21.1698 15.7098 20.8831 15.709 20.5415C15.7082 20.1999 15.5922 19.9132 15.361 19.6812C15.1298 19.4492 14.843 19.3332 14.5007 19.3332C14.1583 19.3332 13.8715 19.4492 13.6403 19.6812C13.4091 19.9132 13.2931 20.1999 13.2923 20.5415C13.2915 20.8831 13.4075 21.1702 13.6403 21.403C13.8731 21.6358 14.1599 21.7514 14.5007 21.7498ZM13.2923 18.1248H15.709V12.0832H13.2923V18.1248Z" fill="#565656"/>
</svg>
