<svg width="30" height="30" viewBox="0 0 30 30" fill="none" xmlns="http://www.w3.org/2000/svg">
<path d="M16.5 30L19.5 28.3333L22.5 30V18.3333H16.5M22.5 10V6.66667L19.5 8.33333L16.5 6.66667V10L13.5 11.6667L16.5 13.3333V16.6667L19.5 15L22.5 16.6667V13.3333L25.5 11.6667M27 0H3C2.20435 0 1.44129 0.351189 0.87868 0.976311C0.31607 1.60143 0 2.44928 0 3.33333V20C0 20.8841 0.31607 21.7319 0.87868 22.357C1.44129 22.9821 2.20435 23.3333 3 23.3333H13.5V20H3V3.33333H27V20H25.5V23.3333H27C27.7957 23.3333 28.5587 22.9821 29.1213 22.357C29.6839 21.7319 30 20.8841 30 20V3.33333C30 2.44928 29.6839 1.60143 29.1213 0.976311C28.5587 0.351189 27.7957 0 27 0ZM13.5 8.33333H4.5V5H13.5M10.5 13.3333H4.5V10H10.5M13.5 18.3333H4.5V15H13.5V18.3333Z" fill="#FF6F00"/>
</svg>
