<svg width="31" height="29" viewBox="0 0 31 29" fill="none" xmlns="http://www.w3.org/2000/svg">
<path d="M9.86133 9.0415H21.7363M9.86133 14.979H18.7676M24.7051 1.61963C25.8861 1.61963 27.0188 2.0888 27.8539 2.92392C28.689 3.75904 29.1582 4.89171 29.1582 6.07275V17.9478C29.1582 19.1288 28.689 20.2615 27.8539 21.0966C27.0188 21.9317 25.8861 22.4009 24.7051 22.4009H17.2832L9.86133 26.854V22.4009H6.89258C5.71154 22.4009 4.57887 21.9317 3.74374 21.0966C2.90862 20.2615 2.43945 19.1288 2.43945 17.9478V6.07275C2.43945 4.89171 2.90862 3.75904 3.74374 2.92392C4.57887 2.0888 5.71154 1.61963 6.89258 1.61963H24.7051Z" stroke="black" stroke-width="2.96875" stroke-linecap="round" stroke-linejoin="round"/>
</svg>
