<svg width="34" height="34" viewBox="0 0 34 34" fill="none" xmlns="http://www.w3.org/2000/svg">
<path d="M17.1223 16.0695V32.007M17.1223 32.007L22.7473 26.382M17.1223 32.007L11.4973 26.382M9.62225 7.69948C11.0247 7.90222 12.3238 8.55342 13.3254 9.55573M27.4348 20.757C30.2829 20.757 32.1223 18.4489 32.1223 15.6007C32.1222 14.4731 31.7524 13.3767 31.0697 12.4793C30.387 11.5818 29.4289 10.9329 28.3423 10.632C28.1751 8.5291 27.3035 6.54405 25.8685 4.99779C24.4336 3.45152 22.519 2.43442 20.4344 2.11091C18.3499 1.7874 16.2171 2.17641 14.381 3.21503C12.5449 4.25365 11.1127 5.88118 10.316 7.83448C8.63867 7.36953 6.84534 7.58993 5.33052 8.4472C3.81569 9.30448 2.70346 10.7284 2.2385 12.4057C1.77354 14.0831 1.99395 15.8764 2.85122 17.3912C3.7085 18.906 5.13242 20.0183 6.80975 20.4832" stroke="#0D1B2A" stroke-width="3" stroke-linecap="round" stroke-linejoin="round"/>
</svg>
