<svg width="20" height="21" viewBox="0 0 20 21" fill="none" xmlns="http://www.w3.org/2000/svg">
<path fill-rule="evenodd" clip-rule="evenodd" d="M9.2908 2.48838C9.75353 2.35153 10.2465 2.35153 10.7092 2.48838C11.0166 2.57926 11.2723 2.73586 11.5116 2.91475C11.737 3.08333 11.9912 3.30576 12.2838 3.56175L16.305 7.08035C16.3229 7.09596 16.3406 7.11142 16.3581 7.12677C16.6394 7.37247 16.8855 7.58744 17.0684 7.85681C17.2284 8.09254 17.3466 8.35337 17.4185 8.62857C17.5008 8.94334 17.5005 9.27014 17.5001 9.64302C17.5001 9.66666 17.5001 9.69048 17.5001 9.7145V14.3632C17.5001 14.7293 17.5001 15.0451 17.4823 15.3064C17.4635 15.5813 17.4222 15.8561 17.3097 16.1277C17.0562 16.7396 16.5702 17.2271 15.957 17.4811C15.6854 17.5936 15.4103 17.6348 15.1354 17.6536C14.8742 17.6714 14.5587 17.6714 14.1931 17.6714H14.1399C13.7744 17.6714 13.4589 17.6714 13.1979 17.6536C12.923 17.6348 12.6481 17.5936 12.3765 17.4811C11.7635 17.2271 11.2773 16.7398 11.0237 16.1277C10.9112 15.8561 10.87 15.5812 10.8512 15.3064C10.8334 15.0453 10.8334 14.7299 10.8334 14.3644V13.5044C10.8334 13.0441 10.4603 12.671 10.0001 12.671C9.53986 12.671 9.16677 13.0441 9.16677 13.5044L9.16677 14.3631C9.16678 14.7292 9.16679 15.0451 9.14893 15.3064C9.13015 15.5813 9.08886 15.8562 8.97638 16.1278C8.72288 16.7398 8.23683 17.2271 7.62369 17.4811C7.35202 17.5936 7.07694 17.6348 6.80206 17.6536C6.5409 17.6714 6.22538 17.6714 5.85979 17.6714H5.80656C5.44102 17.6714 5.12561 17.6714 4.86457 17.6536C4.58971 17.6348 4.31478 17.5936 4.04318 17.4811C3.43005 17.2271 2.94391 16.7397 2.6904 16.1277C2.57791 15.8561 2.53665 15.5812 2.51789 15.3064C2.50008 15.0454 2.50009 14.73 2.5001 14.3644L2.5001 9.7145C2.5001 9.68893 2.50008 9.66358 2.50005 9.63843C2.49968 9.26846 2.49935 8.94227 2.58132 8.62857C2.65364 8.35178 2.77295 8.09117 2.93204 7.85681C3.11496 7.58735 3.36107 7.37236 3.64259 7.12644C3.66004 7.11121 3.67762 7.09585 3.69533 7.08035L7.69665 3.5792L7.71887 3.55975C8.01051 3.30455 8.26405 3.08269 8.489 2.91448C8.72802 2.73576 8.98357 2.57923 9.2908 2.48838ZM10.2366 4.08662C10.0824 4.04101 9.91769 4.04101 9.76344 4.08662C9.72082 4.09922 9.64614 4.13032 9.48707 4.24927C9.31963 4.37447 9.11439 4.55328 8.79416 4.83349L4.79283 8.33465C4.42612 8.65552 4.35731 8.72466 4.311 8.79289C4.25691 8.87257 4.21747 8.95949 4.19384 9.04993C4.17309 9.12932 4.16677 9.22557 4.16677 9.7145V14.3378C4.16677 14.7375 4.16722 14.9955 4.18069 15.1929C4.19365 15.3828 4.21583 15.4552 4.2302 15.4899C4.31501 15.6946 4.47735 15.8569 4.68098 15.9413C4.71566 15.9556 4.78802 15.9778 4.97802 15.9908C5.1755 16.0042 5.43353 16.0047 5.83322 16.0047C6.2329 16.0047 6.49105 16.0042 6.68866 15.9908C6.87885 15.9778 6.95127 15.9556 6.98589 15.9413C7.18951 15.8569 7.35177 15.6947 7.43658 15.4899C7.45097 15.4552 7.47316 15.3828 7.48614 15.1928C7.49963 14.9954 7.5001 14.7373 7.5001 14.3377V13.5044C7.5001 12.1237 8.61939 11.0044 10.0001 11.0044C11.3808 11.0044 12.5001 12.1237 12.5001 13.5044V14.3377C12.5001 14.7374 12.5006 14.9954 12.514 15.1929C12.527 15.3829 12.5492 15.4553 12.5635 15.4899C12.6483 15.6946 12.8106 15.8569 13.0143 15.9413C13.049 15.9556 13.1214 15.9778 13.3114 15.9908C13.5088 16.0042 13.7669 16.0047 14.1666 16.0047C14.5662 16.0047 14.8244 16.0042 15.022 15.9908C15.2122 15.9778 15.2846 15.9556 15.3192 15.9413C15.5228 15.8569 15.6851 15.6947 15.7699 15.4899C15.7843 15.4551 15.8065 15.3827 15.8195 15.1928C15.833 14.9954 15.8334 14.7374 15.8334 14.3378V9.7145C15.8334 9.22682 15.8268 9.12961 15.806 9.04994C15.7819 8.9579 15.7426 8.87121 15.6894 8.79289C15.6431 8.72469 15.5743 8.65561 15.2075 8.33465L11.2075 4.83465C10.8869 4.55407 10.6813 4.37497 10.5136 4.2496C10.3542 4.13047 10.2794 4.09927 10.2366 4.08662Z" fill="#FF6F00"/>
</svg>
