<svg width="6" height="20" viewBox="0 0 6 20" fill="none" xmlns="http://www.w3.org/2000/svg">
<path d="M1.09102 17.0674C1.09628 18.1674 2.00058 19.0631 3.10056 19.0578C4.20055 19.0525 5.09623 18.1483 5.09097 17.0483C5.08571 15.9483 4.18141 15.0526 3.08142 15.0579C1.98144 15.0631 1.08575 15.9674 1.09102 17.0674Z" stroke="#FF6F00" stroke-width="1.5"/>
<path d="M1.02402 3.06757C1.02929 4.16755 1.93358 5.06324 3.03357 5.05797C4.13356 5.05271 5.02924 4.14841 5.02398 3.04843C5.01871 1.94844 4.11442 1.05275 3.01443 1.05802C1.91444 1.06328 1.01876 1.96758 1.02402 3.06757Z" stroke="#FF6F00" stroke-width="1.5"/>
<path d="M1.05752 10.0675C1.06278 11.1675 1.96708 12.0632 3.06707 12.0579C4.16705 12.0526 5.06274 11.1483 5.05747 10.0483C5.05221 8.94836 4.14791 8.05267 3.04793 8.05794C1.94794 8.0632 1.05226 8.9675 1.05752 10.0675Z" stroke="#FF6F00" stroke-width="1.5"/>
</svg>
