<svg width="733" height="680" viewBox="0 0 733 680" fill="none" xmlns="http://www.w3.org/2000/svg">
<path d="M390.165 679.999C540.436 679.999 662.256 672.589 662.256 663.449C662.256 654.308 540.436 646.898 390.165 646.898C239.893 646.898 118.073 654.308 118.073 663.449C118.073 672.589 239.893 679.999 390.165 679.999Z" fill="#F5E3C3"/>
<path d="M373.205 202.561L400.688 303.065L390.882 291.774C394.508 293.709 398.716 295.193 403.356 296.227C407.996 297.279 413.068 297.88 418.366 298.143C423.663 298.425 429.186 298.368 434.841 298.143C440.495 297.899 446.262 297.485 452.123 296.978H452.161C460.802 296.245 468.411 302.651 469.143 311.293C469.838 319.54 463.996 326.828 455.975 328.143C449.926 329.102 443.783 330.022 437.489 330.755C431.177 331.487 424.715 332.032 418.028 332.182C411.34 332.333 404.408 332.07 397.232 331.036C390.074 330.003 382.654 328.125 375.403 325.006C370.763 322.996 367.457 319.202 365.954 314.749L365.597 313.697L332.628 214.866C328.927 203.764 334.92 191.741 346.041 188.04C357.143 184.339 369.166 190.332 372.867 201.453C372.98 201.791 373.111 202.204 373.205 202.561Z" fill="#EA9B7A"/>
<path d="M383.803 566.892C383.39 566.892 382.976 566.817 382.563 566.667L238.59 514.762C236.711 514.086 235.734 512 236.411 510.122C237.087 508.243 239.172 507.248 241.051 507.943L385.024 559.847C386.903 560.524 387.898 562.609 387.203 564.487C386.696 565.971 385.287 566.892 383.803 566.892Z" fill="#C77E2E"/>
<path d="M233.82 566.893C232.336 566.893 230.946 565.973 230.401 564.489C229.725 562.61 230.702 560.525 232.58 559.83L378.263 507.061C380.141 506.385 382.227 507.362 382.922 509.24C383.598 511.119 382.621 513.204 380.743 513.899L235.06 566.668C234.646 566.818 234.233 566.893 233.82 566.893Z" fill="#C77E2E"/>
<path d="M396.61 659.655C393.547 659.655 390.88 657.382 390.448 654.264L364.449 460.076H255.623L230.018 654.264C229.568 657.664 226.449 660.068 223.049 659.617C219.649 659.167 217.244 656.048 217.695 652.648L244.014 453.088C244.427 449.988 247.057 447.678 250.175 447.678H369.896C373.015 447.678 375.645 449.988 376.058 453.069L402.79 652.629C403.241 656.029 400.855 659.167 397.455 659.617C397.154 659.636 396.891 659.655 396.61 659.655Z" fill="#FAAF3A"/>
<path d="M335.207 453.879H257.454C232.826 453.879 206.451 440.391 202.656 416.064C197.602 383.508 196.344 352.004 197.753 323.075C199.35 290.369 214.979 259.936 240.678 239.647C240.678 239.647 256.214 307.332 236.677 400.753C244.153 436.221 335.207 453.879 335.207 453.879Z" fill="#FAAF3A"/>
<path d="M318.994 56.9172C318.994 56.9172 309.751 34.6374 285.273 38.8454C268.178 41.7759 260.89 63.0789 261.885 95.9913C263.35 143.876 247.157 172.731 247.157 172.731L268.648 177.615C268.667 177.596 323.389 95.5029 318.994 56.9172Z" fill="#39393B"/>
<path d="M515.095 576.454H480.36C480.36 576.454 472.32 537.906 469.634 516.302C466.929 494.68 465.538 443.451 465.538 443.451C465.538 443.451 437.867 452.45 379.932 449.049C251.57 441.554 300.243 347.25 300.243 347.25C304.583 353.243 331.146 349.091 349.312 351.946C405.049 357.3 453.365 379.167 482.37 391.678C489.359 394.684 495.558 397.877 501.006 401.24C507.994 405.542 512.371 418.635 515.02 435.824C522.929 487.504 515.095 576.454 515.095 576.454Z" fill="#39393B"/>
<path d="M484.644 557.878C484.061 557.878 483.554 557.464 483.422 556.882C478.407 532.085 476.735 501.22 475.382 476.423C474.255 455.853 473.203 436.428 470.554 434.099C468.413 432.202 459.527 433.686 448.293 435.546C425.92 439.265 392.105 444.863 354.835 436.203C334.527 431.469 319.593 421.607 310.463 406.879C294.702 381.48 301.897 349.977 301.972 349.658C302.122 348.981 302.798 348.568 303.475 348.737C304.151 348.887 304.564 349.564 304.395 350.24C304.32 350.54 297.388 381.067 312.605 405.582C321.377 419.728 335.786 429.215 355.417 433.78C392.218 442.346 425.732 436.785 447.918 433.103C461.199 430.906 469.22 429.572 472.245 432.239C475.514 435.132 476.434 449.334 477.899 476.292C479.252 501.014 480.924 531.766 485.902 556.394C486.034 557.07 485.602 557.727 484.925 557.859C484.794 557.878 484.719 557.878 484.644 557.878Z" fill="#585859"/>
<path d="M515.733 558.534H515.714L477.091 557.708C476.396 557.689 475.851 557.126 475.87 556.431C475.888 555.735 476.452 555.191 477.147 555.209L515.77 556.036C516.465 556.055 517.01 556.618 516.991 557.313C516.973 557.99 516.409 558.534 515.733 558.534Z" fill="#585859"/>
<path d="M514.099 620.933H489.584L484.869 592.191L482.276 576.448H512.728L513.216 592.191L514.099 620.933Z" fill="#EA9B7A"/>
<path d="M514.085 620.944H489.57L486.057 599.547L484.854 592.202H513.202L513.446 599.81L514.085 620.944Z" fill="#FAAF3A"/>
<path d="M513.446 599.81L486.057 599.547L484.854 592.202H513.202L513.446 599.81Z" fill="#C77E2E"/>
<path d="M574.567 659.658H481.86C481.164 658.399 480.789 656.633 480.638 654.51C480.056 646.658 482.555 634.147 483.776 626.257C483.926 625.336 484.057 624.472 484.151 623.702C484.32 622.387 484.433 621.279 484.433 620.471C484.433 614.027 490.125 615.136 490.125 615.136C499.499 624.341 510.132 610.533 516.331 615.06C516.331 615.06 516.575 615.248 517.158 615.68C517.684 616.094 518.473 616.732 519.562 617.653C521.14 618.968 523.357 620.884 526.363 623.589C533.727 630.22 546.238 634.579 556.889 639.031C558.242 639.595 559.501 640.177 560.684 640.74C561.567 641.173 562.412 641.605 563.201 642.018C571.918 646.714 574.679 651.223 575.318 654.492C575.938 657.648 574.567 659.658 574.567 659.658Z" fill="#FF6F00"/>
<path d="M563.275 642.035C560.889 643.932 555.573 647.746 551.308 647.746C551.12 647.746 550.933 647.746 550.745 647.727C547.739 647.483 536.693 642.054 527.695 637.113C522.547 634.276 517.832 631.496 514.451 629.261C508.909 625.597 507.932 624.207 507.726 623.23C506.918 619.567 512.967 617.031 517.212 615.697C517.738 616.111 518.527 616.749 519.617 617.67C514.357 619.098 510.017 621.352 510.224 622.648C510.75 623.738 516.235 627.908 529.348 635.103C539.361 640.588 548.847 645.003 550.951 645.191C553.807 645.416 557.996 642.824 560.739 640.776C561.64 641.189 562.486 641.622 563.275 642.035Z" fill="#084FC7"/>
<path d="M574.566 659.661H481.859C481.164 658.402 480.788 656.636 480.638 654.514H575.336C575.937 657.651 574.566 659.661 574.566 659.661Z" fill="#084FC7"/>
<path d="M491.365 659.648H488.604C491.347 656.511 493.92 651.683 493.582 644.807C493.131 635.64 487.646 629.478 483.813 626.247C483.964 625.327 484.095 624.463 484.189 623.692C488.303 626.83 495.235 633.724 495.78 644.695C496.137 651.27 493.977 656.173 491.365 659.648Z" fill="#084FC7"/>
<path d="M524.855 629.074C524.178 629.074 523.539 628.604 523.37 627.909C523.164 627.083 523.671 626.256 524.479 626.049L530.265 624.603C531.091 624.396 531.918 624.903 532.125 625.711C532.331 626.538 531.824 627.364 531.016 627.571L525.23 629.017C525.099 629.055 524.967 629.074 524.855 629.074Z" fill="white"/>
<path d="M519.1 624.269C518.423 624.269 517.785 623.799 517.616 623.104C517.409 622.278 517.916 621.451 518.724 621.245L524.51 619.798C525.336 619.592 526.163 620.099 526.37 620.907C526.576 621.733 526.069 622.56 525.261 622.747L519.475 624.194C519.344 624.25 519.212 624.269 519.1 624.269Z" fill="white"/>
<path d="M530.649 632.434C529.973 632.434 529.334 631.964 529.165 631.269C528.959 630.443 529.466 629.616 530.274 629.428L536.06 627.982C536.886 627.775 537.713 628.282 537.919 629.09C538.126 629.917 537.619 630.743 536.811 630.95L531.025 632.396C530.894 632.434 530.781 632.434 530.649 632.434Z" fill="white"/>
<path d="M536.399 635.687C535.704 635.687 535.084 635.217 534.915 634.522C534.709 633.696 535.216 632.869 536.024 632.663L541.81 631.216C542.636 631.009 543.463 631.517 543.669 632.324C543.876 633.151 543.369 633.978 542.561 634.165L536.775 635.612C536.662 635.668 536.531 635.687 536.399 635.687Z" fill="white"/>
<path d="M542.76 638.674C542.083 638.674 541.445 638.205 541.276 637.509C541.069 636.683 541.576 635.856 542.384 635.668L548.17 634.222C548.997 634.015 549.823 634.523 550.03 635.33C550.236 636.157 549.729 636.983 548.921 637.19L543.135 638.637C543.004 638.655 542.872 638.674 542.76 638.674Z" fill="white"/>
<path d="M549.585 641.227C548.909 641.227 548.27 640.757 548.101 640.062C547.894 639.236 548.401 638.409 549.209 638.203L554.995 636.756C555.822 636.55 556.648 637.057 556.855 637.865C557.062 638.691 556.554 639.518 555.747 639.705L549.961 641.152C549.829 641.208 549.716 641.227 549.585 641.227Z" fill="white"/>
<path d="M235.949 317.344C235.949 317.344 234.859 324.839 244.891 326.943L349.489 330.437C349.489 330.437 356.553 326.887 355.275 318.133C355.275 318.114 311.11 293.298 235.949 317.344Z" fill="#084FC7"/>
<path d="M350.913 351.925C296.622 381.794 237.335 357.749 237.335 357.749C240.228 349.84 242.388 340.917 243.948 332.801C245.751 323.352 246.765 315.011 247.235 310.634C270.323 309.376 326.942 306.952 349.128 312.212L349.297 321.098L350.913 351.925Z" fill="#EA9B7A"/>
<path d="M310.804 337.612C310.41 340.412 309.132 342.553 307.986 342.384C306.822 342.215 306.22 339.81 306.615 337.011C307.009 334.212 308.287 332.071 309.433 332.24C310.598 332.409 311.199 334.813 310.804 337.612Z" fill="#D96C63"/>
<path d="M349.281 321.098C326.155 319.689 280.675 319.201 243.931 332.783C245.734 323.334 246.749 314.993 247.218 310.616C270.306 309.357 326.926 306.934 349.112 312.194L349.281 321.098Z" fill="#D96C63"/>
<path d="M375.081 278.134C374.855 278.81 374.592 279.43 374.292 280.012C374.179 280.238 374.066 280.463 373.954 280.67C371.042 286.061 366.552 290.739 362.776 294.064C361.987 294.759 361.236 295.379 360.541 295.943C359.151 297.07 357.967 297.953 357.159 298.535C356.408 299.061 355.976 299.343 355.976 299.343C355.976 299.399 355.976 299.437 355.957 299.512C355.919 299.906 355.882 300.339 355.844 300.789C355.713 302.499 355.6 304.528 355.525 306.857C355.45 308.717 355.393 310.765 355.356 312.981C355.337 314.616 355.3 316.325 355.281 318.091C324.604 304.377 261.409 313.038 235.954 317.321C236.424 315.123 236.837 312.962 237.232 310.858C239.035 301.146 240.05 292.411 240.444 284.577C241.045 272.93 240.031 255.422 237.551 237.331C237.401 236.148 237.232 234.983 237.063 233.819C236.95 233.048 236.837 232.297 236.706 231.527C235.842 225.853 234.827 220.161 233.681 214.638C228.665 190.555 232.178 165.288 256.6 162.302C258.366 162.076 260.113 161.888 261.822 161.7C273.319 160.479 282.787 160.047 285.417 159.953C285.905 159.935 286.15 159.935 286.15 159.935L333.339 173.648L337.829 174.944C340.402 175.771 342.788 176.579 345.005 177.368C345.944 177.706 346.865 178.044 347.729 178.363C350.021 179.227 352.087 180.054 353.985 180.899C357.76 182.571 360.747 184.206 363.114 185.878C373.465 193.223 371.868 201.526 371.605 217.926C371.605 218.001 371.605 218.076 371.605 218.151C371.605 218.358 371.605 218.565 371.605 218.79C371.605 218.884 371.605 218.978 371.605 219.072C371.605 219.748 371.605 220.406 371.605 221.082C371.624 223.205 371.699 225.309 371.831 227.413C372 230.512 372.282 233.593 372.62 236.599C372.751 237.801 372.883 239.003 373.033 240.206C373.165 241.333 373.315 242.441 373.465 243.549C375.306 257.902 377.654 270.488 375.081 278.134Z" fill="#FF6F00"/>
<path d="M371.583 218.154C371.583 218.36 371.583 218.567 371.583 218.793C371.583 218.887 371.583 218.98 371.583 219.074C371.583 219.751 371.583 220.408 371.583 221.084L361.664 227.302C361.364 227.49 361.026 227.547 360.688 227.49C360.312 227.434 359.974 227.209 359.748 226.87C359.335 226.213 359.542 225.368 360.18 224.954L370.7 218.36C370.963 218.191 371.283 218.135 371.583 218.154Z" fill="#084FC7"/>
<path d="M306.195 271.278C305.819 271.278 305.444 271.128 305.162 270.827C304.655 270.263 304.692 269.38 305.256 268.873L314.479 260.57C315.043 260.063 315.926 260.1 316.433 260.664C316.94 261.227 316.903 262.11 316.339 262.618L307.115 270.921C306.852 271.146 306.514 271.278 306.195 271.278Z" fill="#084FC7"/>
<path d="M373.412 243.552L367.1 249.244C366.837 249.488 366.499 249.601 366.179 249.601C365.804 249.601 365.428 249.45 365.146 249.15C364.639 248.586 364.676 247.703 365.24 247.196L372.98 240.227C373.111 241.335 373.262 242.443 373.412 243.552Z" fill="#084FC7"/>
<path d="M287.496 237.876C287.289 237.557 287.195 237.162 287.289 236.768C287.458 236.016 288.21 235.566 288.961 235.735L301.041 238.59C301.792 238.759 302.243 239.511 302.074 240.262C301.905 241.013 301.153 241.464 300.402 241.295L288.323 238.44C287.966 238.365 287.684 238.158 287.496 237.876Z" fill="#084FC7"/>
<path d="M244.381 261.584C244.005 261.584 243.629 261.434 243.347 261.134C242.84 260.57 242.878 259.687 243.441 259.18L252.665 250.877C253.229 250.369 254.111 250.407 254.619 250.971C255.126 251.534 255.088 252.417 254.525 252.924L245.301 261.227C245.038 261.472 244.719 261.584 244.381 261.584Z" fill="#084FC7"/>
<path d="M351.754 259.614C351.867 259.258 352.148 258.938 352.505 258.788C353.2 258.487 354.027 258.807 354.327 259.502L359.287 270.886C359.587 271.581 359.268 272.407 358.573 272.708C357.878 273.009 357.051 272.689 356.751 271.994L351.791 260.61C351.66 260.272 351.66 259.915 351.754 259.614Z" fill="#084FC7"/>
<path d="M375.072 278.138C374.847 278.815 374.584 279.435 374.283 280.017C374.171 280.242 374.058 280.468 373.945 280.674L367.201 278.552C366.863 278.439 366.6 278.214 366.431 277.932C366.243 277.612 366.168 277.199 366.3 276.823C366.525 276.091 367.314 275.696 368.028 275.922L375.072 278.138Z" fill="#084FC7"/>
<path d="M336.97 279.132C337.346 279.094 337.741 279.207 338.041 279.489C338.605 279.996 338.642 280.879 338.135 281.443L329.794 290.629C329.287 291.192 328.404 291.23 327.841 290.723C327.277 290.216 327.24 289.333 327.747 288.769L336.088 279.583C336.332 279.32 336.651 279.17 336.97 279.132Z" fill="#084FC7"/>
<path d="M332.074 257.942C331.699 257.885 331.361 257.66 331.135 257.322C330.722 256.683 330.928 255.819 331.567 255.406L342.087 248.812C342.726 248.399 343.59 248.605 344.003 249.244C344.417 249.883 344.21 250.747 343.571 251.16L333.051 257.754C332.751 257.942 332.394 257.998 332.074 257.942Z" fill="#084FC7"/>
<path d="M338.775 217.966C339.019 218.248 339.169 218.624 339.113 219.037C339.038 219.788 338.342 220.352 337.591 220.258L325.249 218.905C324.497 218.83 323.934 218.135 324.028 217.384C324.103 216.632 324.798 216.069 325.549 216.163L337.892 217.515C338.23 217.553 338.549 217.722 338.775 217.966Z" fill="#084FC7"/>
<path d="M320.835 191.194C320.929 190.818 321.173 190.499 321.53 190.311C322.206 189.954 323.051 190.198 323.408 190.875L329.288 201.808C329.645 202.484 329.401 203.33 328.725 203.687C328.048 204.043 327.203 203.799 326.846 203.123L320.966 192.19C320.778 191.87 320.741 191.513 320.835 191.194Z" fill="#084FC7"/>
<path d="M362.785 294.084C361.996 294.779 361.244 295.399 360.549 295.962L358.934 291.83C358.802 291.491 358.802 291.153 358.934 290.834C359.065 290.477 359.347 290.176 359.723 290.026C360.436 289.744 361.244 290.101 361.526 290.815L362.785 294.084Z" fill="#084FC7"/>
<path d="M249.321 273.046C249.133 272.707 249.096 272.313 249.246 271.918C249.509 271.205 250.298 270.829 251.012 271.092L262.697 275.3C263.41 275.563 263.786 276.352 263.523 277.066C263.26 277.78 262.471 278.155 261.757 277.892L250.073 273.684C249.734 273.59 249.471 273.346 249.321 273.046Z" fill="#084FC7"/>
<path d="M255.029 288.844C255.405 288.844 255.781 289.013 256.063 289.313C256.57 289.877 256.513 290.76 255.95 291.267L246.651 299.495C246.087 300.002 245.205 299.946 244.697 299.383C244.19 298.819 244.246 297.936 244.81 297.429L254.109 289.201C254.372 288.956 254.71 288.844 255.029 288.844Z" fill="#084FC7"/>
<path d="M271.886 301.901C272.111 302.202 272.243 302.596 272.167 302.991C272.036 303.742 271.322 304.249 270.571 304.118L258.341 302.033C257.59 301.901 257.083 301.187 257.214 300.436C257.346 299.685 258.059 299.177 258.811 299.309L271.04 301.394C271.378 301.45 271.679 301.638 271.886 301.901Z" fill="#084FC7"/>
<path d="M282.125 185.691C282.031 185.335 282.069 184.921 282.294 184.583C282.708 183.944 283.572 183.757 284.21 184.17L294.636 190.895C295.275 191.308 295.463 192.173 295.05 192.811C294.636 193.45 293.772 193.638 293.134 193.225L282.708 186.499C282.407 186.293 282.2 186.011 282.125 185.691Z" fill="#084FC7"/>
<path d="M353.286 193.617C353.624 193.429 354.018 193.392 354.413 193.523C355.127 193.786 355.502 194.575 355.258 195.289L351.107 206.992C350.844 207.706 350.055 208.082 349.341 207.838C348.627 207.575 348.251 206.786 348.495 206.072L352.647 194.369C352.76 194.049 353.004 193.786 353.286 193.617Z" fill="#084FC7"/>
<path d="M347.705 178.383L341.299 186.611C340.829 187.212 339.965 187.325 339.364 186.855C338.763 186.386 338.65 185.522 339.12 184.921L344.981 177.406C345.92 177.707 346.841 178.045 347.705 178.383Z" fill="#084FC7"/>
<path d="M285.022 291.909C285.153 292.303 285.491 292.585 285.867 292.66C286.055 292.698 286.261 292.698 286.449 292.622C286.656 292.547 306.738 286.048 327.853 294.802C338.58 299.254 348.123 300.945 355.844 300.794C355.881 300.343 355.919 299.93 355.956 299.517C355.956 299.46 355.975 299.404 355.975 299.367C355.975 299.367 356.407 299.085 357.159 298.559C349.569 298.934 339.857 297.319 328.717 292.716C306.794 283.624 286.581 290.199 285.735 290.481C285.153 290.688 284.834 291.326 285.022 291.909Z" fill="#084FC7"/>
<path d="M333.305 173.649C330.656 177.744 325.208 182.384 314.162 181.595C298.927 180.487 288.895 165.947 285.401 159.973C285.871 159.954 286.134 159.954 286.134 159.954L333.305 173.649Z" fill="#084FC7"/>
<path d="M317.113 200.626C317.563 200.719 318.014 200.776 318.465 200.813C322.673 201.152 326.092 199.93 328.609 197.188C335.936 189.185 332.93 170.925 332.799 170.155C332.686 169.535 332.103 169.122 331.502 169.235C330.882 169.347 330.469 169.93 330.582 170.531C330.619 170.719 333.531 188.471 326.956 195.666C324.909 197.902 322.185 198.86 318.672 198.578C303.906 197.394 287.356 159.879 287.187 159.504C286.943 158.94 286.267 158.677 285.703 158.921C285.139 159.166 284.876 159.842 285.121 160.405C285.759 161.965 301.464 197.451 317.113 200.626Z" fill="white"/>
<path d="M363.108 185.881C362.131 196.701 364.799 214.567 371.787 227.416C371.618 224.654 371.543 221.855 371.58 219.075C371.58 218.981 371.58 218.887 371.58 218.793C371.58 218.512 371.599 218.23 371.599 217.948C371.843 201.548 373.44 193.226 363.108 185.881Z" fill="#EA9B7A"/>
<path d="M276.294 204.929C270.884 225.818 251.084 242.575 237.558 237.353C237.389 236.188 237.239 235.004 237.07 233.84C236.957 233.07 236.844 232.318 236.713 231.548C235.849 225.875 234.834 220.183 233.688 214.66C228.673 190.576 232.204 165.31 256.607 162.323C258.373 162.097 260.12 161.91 261.829 161.722C274.021 166.925 282.531 180.883 276.294 204.929Z" fill="#EA9B7A"/>
<path d="M279.075 188.998L310.785 304.981L299.476 291.944C303.665 294.16 308.512 295.889 313.885 297.091C319.239 298.293 325.1 298.988 331.205 299.308C337.329 299.627 343.698 299.571 350.216 299.308C356.735 299.045 363.404 298.556 370.167 297.974H370.204C380.179 297.128 388.952 304.511 389.798 314.486C390.605 323.992 383.861 332.427 374.581 333.929C367.612 335.038 360.511 336.09 353.241 336.935C345.971 337.781 338.513 338.4 330.773 338.588C323.052 338.757 315.05 338.476 306.784 337.273C298.537 336.071 289.971 333.929 281.592 330.304C276.238 327.993 272.425 323.597 270.697 318.469L270.302 317.267L232.242 203.2C227.959 190.388 234.891 176.525 247.703 172.241C260.515 167.958 274.379 174.89 278.662 187.702C278.831 188.115 278.962 188.604 279.075 188.998Z" fill="#EA9B7A"/>
<path d="M293.283 301.279C292.964 301.279 292.644 301.11 292.475 300.81C292.212 300.359 292.381 299.795 292.832 299.532C293.133 299.363 300.065 295.456 307.316 294.892C307.842 294.855 308.293 295.23 308.33 295.756C308.368 296.282 307.992 296.733 307.466 296.771C300.647 297.297 293.828 301.129 293.771 301.167C293.602 301.242 293.433 301.279 293.283 301.279Z" fill="#D96C63"/>
<path d="M304.816 297.09C304.647 297.09 304.477 297.053 304.327 296.959C299.95 294.31 294.653 293.897 294.596 293.897C294.07 293.859 293.695 293.408 293.732 292.901C293.77 292.375 294.202 291.999 294.728 292.037C294.953 292.056 300.532 292.469 305.285 295.362C305.736 295.625 305.868 296.207 305.605 296.658C305.436 296.921 305.116 297.09 304.816 297.09Z" fill="#D96C63"/>
<path d="M333.078 235.959C347.111 238.796 353.254 224.293 353.311 224.143C353.555 223.56 353.273 222.903 352.691 222.677C352.108 222.433 351.451 222.715 351.225 223.297C351 223.842 345.702 236.222 333.529 233.761C320.736 231.169 296.878 206.015 296.653 205.752C296.221 205.301 295.507 205.282 295.056 205.714C294.605 206.146 294.587 206.86 295.019 207.311C295.996 208.344 319.609 233.216 333.078 235.959Z" fill="#084FC7"/>
<path d="M311.037 144.609C311.037 144.609 288.513 140.363 282.163 117.633C276.114 95.9918 280.773 84.758 287.066 73.0733C291.8 64.2628 306.829 52.3715 327.887 56.6358C349.153 60.9378 365.064 71.871 367.412 89.3604C371.789 122.085 345.396 162.005 311.037 144.609Z" fill="#39393B"/>
<path d="M283.215 121.146C282.802 121.146 282.407 120.939 282.2 120.545C281.787 119.831 272.319 102.793 280.19 80.3625C285.112 66.3484 294.787 60.0928 302.057 57.2937C309.909 54.2692 316.503 54.5698 316.785 54.5698C317.423 54.6074 317.931 55.1521 317.893 55.8096C317.856 56.4483 317.33 56.9556 316.672 56.918C316.616 56.918 310.21 56.655 302.808 59.5104C292.965 63.3239 286.108 70.5939 282.407 81.1327C274.912 102.511 284.154 119.211 284.248 119.38C284.567 119.944 284.38 120.658 283.816 120.977C283.609 121.09 283.421 121.146 283.215 121.146Z" fill="#FAAF3A"/>
<path d="M354.702 121.502C354.702 121.502 362.029 115.716 363.963 123.381C365.898 131.045 360.451 144.665 351.922 140.532L354.702 121.502Z" fill="#D96C63"/>
<path d="M347.529 135.597C343.885 136.799 340.673 140.03 339.846 144.032C338.644 150.006 342.513 155.829 348.469 157.05C354.442 158.253 360.266 154.383 361.487 148.428C362.389 143.957 360.454 139.561 356.903 137.137C355.72 136.311 354.348 135.729 352.846 135.428C352.808 135.428 352.77 135.409 352.733 135.409C352.526 136.161 352.601 136.762 353.033 137.231C354.236 137.551 355.325 138.096 356.283 138.809C359.045 140.913 360.529 144.464 359.796 148.089C358.782 153.124 353.841 156.393 348.807 155.378C343.772 154.364 340.503 149.423 341.518 144.389C342.269 140.726 344.974 138.133 348.375 137.307L347.529 135.597Z" fill="#FAAF3A"/>
<path d="M332.521 154.353L329.459 173.552C329.459 173.552 315.088 188.223 288.845 161.904C295.889 156.663 298.576 144.49 297.749 136.638C297.749 136.638 299.816 137.878 303.009 140.771C303.629 141.334 304.437 141.766 305.207 142.311C312.139 147.007 322.772 153.15 332.521 154.353Z" fill="#EA9B7A"/>
<path d="M332.494 154.36L331.047 163.452C323.176 159.939 309.256 152.443 302.981 140.759C303.658 141.247 304.409 141.754 305.179 142.299C312.111 147.014 322.744 153.157 332.494 154.36Z" fill="#39393B"/>
<path d="M361.813 116.88C361.399 118.909 361.024 120.844 360.629 122.685C360.216 124.676 359.821 126.555 359.427 128.321C356.515 141.602 354.129 148.722 350.259 151.39C330.666 164.859 298.787 137.582 297.754 136.699C297.735 136.68 297.735 136.68 297.735 136.68C297.716 135.121 297.716 133.562 297.735 132.04C297.979 119.116 300.177 107.506 303.671 96.7797C305.418 85.0575 314.51 75.6647 326.214 73.8988C338.349 72.0766 347.479 79.1024 353.19 82.2021C361.813 86.8985 365.194 99.9545 361.813 116.88Z" fill="#EA9B7A"/>
<path d="M304.348 84.7201C304.348 84.7201 318.062 58.345 345.414 65.709C372.766 73.073 374.212 85.7721 374.701 92.1216C375.189 98.4712 360.536 87.2186 360.536 87.2186C360.536 87.2186 360.029 99.9177 355.145 96.0103C349.152 91.2011 342.464 80.8502 342.464 80.8502C342.464 80.8502 326.177 96.8556 310.698 92.5349C301.887 90.0928 304.348 84.7201 304.348 84.7201Z" fill="#39393B"/>
<path d="M337.928 142.748C334.377 142.748 331.935 140.287 331.822 140.156C331.447 139.761 331.447 139.142 331.841 138.766C332.236 138.39 332.837 138.39 333.213 138.785C333.344 138.916 336.162 141.715 339.881 140.438C340.389 140.269 340.952 140.532 341.121 141.039C341.29 141.546 341.027 142.11 340.52 142.279C339.618 142.617 338.754 142.748 337.928 142.748Z" fill="#D96C63"/>
<path d="M329.758 126.78C329.758 126.78 342.946 130.688 349.784 130.688C349.784 130.688 346.365 140.456 336.596 137.037C328.988 134.37 329.758 126.78 329.758 126.78Z" fill="white"/>
<path d="M354.248 99.3158C354.248 99.3158 350.829 98.9589 351.374 102.284C351.938 105.609 359.358 103.58 363.04 110.23C363.04 110.23 366.591 103.261 354.248 99.3158Z" fill="#39393B"/>
<path d="M338.987 96.2329C338.987 96.2329 342.275 97.2473 340.471 100.084C338.668 102.921 332.619 98.1678 326.645 102.864C326.645 102.864 326.1 95.0682 338.987 96.2329Z" fill="#39393B"/>
<path d="M333.08 120.033C332.76 121.592 329.285 122.212 325.284 121.404C321.301 120.596 318.333 118.68 318.652 117.102C318.972 115.543 322.447 114.923 326.448 115.731C330.431 116.538 333.399 118.473 333.08 120.033Z" fill="#D96C63"/>
<path d="M371.989 121.065L361.337 119.243C361.281 119.694 361.168 120.145 361.074 120.577C361.055 120.652 361.037 120.727 360.999 120.802L371.726 122.625C372.158 122.7 372.571 122.399 372.646 121.967C372.721 121.554 372.439 121.141 371.989 121.065Z" fill="white"/>
<path d="M343.607 111.989C343.607 111.445 343.588 110.9 343.513 110.374C343.156 107.481 341.879 104.813 339.925 102.747C338.121 100.85 335.773 99.4595 333.049 98.8583C333.012 98.8395 332.955 98.8395 332.918 98.8207C326.681 97.5433 320.538 100.812 318.002 106.373C317.777 106.861 317.589 107.349 317.42 107.857C317.269 108.307 317.157 108.777 317.044 109.247C316.33 112.741 317.025 116.197 318.772 119.015C319.373 119.973 320.087 120.856 320.895 121.627C322.661 123.336 324.896 124.576 327.47 125.102C331.809 126.004 336.074 124.689 339.136 121.946C341.202 120.105 342.724 117.588 343.325 114.676C343.325 114.657 343.325 114.657 343.325 114.638C343.513 113.755 343.607 112.872 343.607 111.989ZM327.808 123.543C327.733 123.524 327.677 123.524 327.62 123.505C324.258 122.754 321.534 120.612 319.937 117.813C318.566 115.39 318.021 112.497 318.622 109.566C318.753 108.965 318.923 108.383 319.129 107.819C319.148 107.782 319.167 107.744 319.167 107.706C320.839 103.367 324.915 100.418 329.499 100.155C330.513 100.098 331.546 100.155 332.598 100.38C334.853 100.85 336.806 101.92 338.366 103.404C341.221 106.128 342.649 110.224 341.803 114.356C340.451 120.744 334.195 124.876 327.808 123.543Z" fill="white"/>
<path d="M367.421 106.495C367.064 106.308 366.688 106.139 366.294 105.969C365.843 105.782 365.373 105.631 364.904 105.481C364.566 105.387 364.246 105.293 363.889 105.237C363.251 105.105 362.631 105.03 362.011 104.993C361.259 104.936 360.508 104.955 359.775 105.049C357.728 105.274 355.793 105.951 354.083 107.021C352.205 108.186 350.608 109.821 349.518 111.793C349.218 112.3 348.973 112.826 348.748 113.352C348.729 113.39 348.729 113.409 348.71 113.446C348.429 114.16 348.203 114.911 348.034 115.682C346.963 120.867 349.049 125.976 352.975 129.019C354.252 130.015 355.717 130.785 357.333 131.255C357.577 131.33 357.821 131.405 358.084 131.443C358.216 131.48 358.329 131.499 358.46 131.537C359.756 131.8 361.053 131.875 362.311 131.762C362.518 131.743 362.725 131.725 362.912 131.706C363.457 131.631 364.002 131.537 364.547 131.386C365.542 131.123 366.519 130.748 367.421 130.278C370.859 128.475 373.489 125.206 374.334 121.111C375.555 115.099 372.568 109.201 367.421 106.495ZM372.756 120.773C372.7 121.036 372.643 121.28 372.568 121.524C372.474 121.881 372.362 122.219 372.23 122.576C371.291 125.074 369.563 127.103 367.383 128.437C366.594 128.926 365.73 129.32 364.829 129.621C364.265 129.808 363.701 129.94 363.1 130.034C362.931 130.071 362.762 130.09 362.593 130.109C361.353 130.259 360.057 130.222 358.761 129.959C358.648 129.94 358.517 129.902 358.404 129.884C358.329 129.865 358.254 129.846 358.197 129.827C356.3 129.339 354.609 128.4 353.238 127.141C353.031 126.953 352.843 126.765 352.655 126.577C350.044 123.872 348.767 119.946 349.575 115.982C349.762 115.099 350.044 114.235 350.401 113.446C351.585 110.854 353.651 108.844 356.15 107.66C357.69 106.928 359.399 106.533 361.165 106.533C361.447 106.533 361.729 106.552 362.029 106.571C362.537 106.608 363.044 106.683 363.551 106.777C363.927 106.852 364.284 106.946 364.641 107.059C365.129 107.209 365.599 107.397 366.068 107.604C366.425 107.773 366.782 107.961 367.139 108.149C371.403 110.647 373.808 115.663 372.756 120.773Z" fill="white"/>
<path d="M300.925 108.792C300.831 108.773 300.737 108.735 300.662 108.679C300.286 108.435 300.192 107.946 300.418 107.59C305.753 99.2487 318.584 106.744 318.696 106.819C319.072 107.045 319.204 107.533 318.978 107.909C318.753 108.285 318.264 108.416 317.889 108.191C317.776 108.116 306.26 101.409 301.752 108.454C301.583 108.717 301.244 108.848 300.925 108.792Z" fill="white"/>
<path d="M349.324 113.811C349.118 113.774 348.949 113.642 348.817 113.473C347.108 110.843 343.463 112.027 343.426 112.027C343.012 112.158 342.562 111.933 342.43 111.519C342.299 111.106 342.524 110.655 342.937 110.524C344.609 109.96 348.272 109.678 350.17 112.609C350.414 112.985 350.301 113.473 349.926 113.698C349.738 113.811 349.531 113.849 349.324 113.811Z" fill="white"/>
<g opacity="0.8">
<g opacity="0.8">
<g opacity="0.8">
<g opacity="0.8">
<g opacity="0.8">
<g opacity="0.8">
<g opacity="0.8">
<path opacity="0.8" d="M360.623 122.682C360.21 124.673 359.815 126.552 359.421 128.318C355.795 127.435 353.184 125.65 353.484 124.166C353.804 122.701 356.922 122.062 360.623 122.682Z" fill="#D96C63"/>
</g>
</g>
</g>
</g>
</g>
</g>
</g>
<path d="M335.888 112.167C335.456 114.327 334.122 115.867 332.92 115.623C331.718 115.379 331.098 113.444 331.53 111.284C331.962 109.123 333.296 107.583 334.498 107.827C335.7 108.071 336.32 110.006 335.888 112.167Z" fill="#39393B"/>
<path d="M357.174 116.488C356.742 118.648 355.409 120.189 354.206 119.945C353.004 119.7 352.384 117.765 352.816 115.605C353.248 113.445 354.582 111.904 355.784 112.148C356.987 112.393 357.607 114.328 357.174 116.488Z" fill="#39393B"/>
<path d="M346.168 122.278C347.202 122.485 347.934 122.448 347.991 122.448C348.235 122.429 348.479 122.316 348.648 122.128C348.817 121.94 348.874 121.677 348.855 121.433L347.483 111.383C347.408 110.894 346.957 110.537 346.469 110.613C345.981 110.688 345.624 111.139 345.699 111.627L346.92 120.588C346.018 120.456 344.666 120.081 343.445 119.066C343.069 118.747 342.486 118.803 342.167 119.179C341.848 119.555 341.904 120.137 342.28 120.456C343.614 121.546 345.06 122.053 346.168 122.278Z" fill="#39393B"/>
<path d="M306.543 129.374C306.393 129.599 302.222 135.592 297.77 136.682C297.751 136.663 297.751 136.663 297.751 136.663C297.714 135.104 297.732 133.544 297.751 132.023C297.901 132.042 302.147 132.154 306.543 129.374Z" fill="#39393B"/>
<path d="M305.618 113.628C305.618 113.628 299.343 100.328 291.209 108.124C284.503 114.568 290.364 136.058 302.011 131.456L305.618 113.628Z" fill="#EA9B7A"/>
<path d="M290.169 125.11C286.525 126.312 283.312 129.543 282.486 133.544C281.283 139.518 285.153 145.342 291.108 146.563C297.082 147.765 302.906 143.895 304.127 137.94C305.028 133.469 303.093 129.074 299.543 126.65C298.359 125.824 296.988 125.241 295.485 124.941C295.448 124.941 295.41 124.922 295.373 124.922C295.166 125.673 295.26 126.274 295.673 126.744C296.875 127.063 297.965 127.608 298.923 128.322C301.685 130.426 303.169 133.977 302.436 137.602C301.422 142.637 296.481 145.905 291.446 144.891C286.412 143.877 283.143 138.936 284.158 133.901C284.89 130.238 287.614 127.646 291.014 126.819L290.169 125.11Z" fill="#FAAF3A"/>
<path d="M301.515 127.761C301.553 127.761 301.572 127.78 301.609 127.78C302.098 127.818 302.549 127.461 302.586 126.954C303.507 116.903 295.917 111.812 295.598 111.606C295.185 111.324 294.621 111.456 294.339 111.869C294.057 112.282 294.189 112.846 294.602 113.127C294.884 113.315 301.609 117.861 300.783 126.803C300.764 127.254 301.083 127.668 301.515 127.761Z" fill="#39393B"/>
<path d="M294.343 120.718C294.531 120.756 294.756 120.737 294.944 120.624C295.846 120.154 298.495 119.102 299.941 119.797C300.392 120.023 300.937 119.835 301.143 119.384C301.369 118.933 301.181 118.388 300.73 118.182C298.213 116.961 294.531 118.821 294.117 119.027C293.667 119.253 293.498 119.797 293.742 120.248C293.854 120.493 294.099 120.662 294.343 120.718Z" fill="#39393B"/>
<path d="M313.704 91.0679C313.704 91.0679 305.269 113.968 304.818 118.589C304.198 124.882 295.876 103.316 304.236 84.9062L313.704 91.0679Z" fill="#39393B"/>
<path d="M454.64 576.561H419.905C419.905 576.561 411.865 538.013 409.179 516.41C406.473 494.787 405.083 443.559 405.083 443.559C405.083 443.559 377.412 452.557 319.477 449.157C191.115 441.661 239.788 347.357 239.788 347.357C244.128 353.35 276.665 361.597 294.812 364.471C350.549 369.825 392.91 379.293 421.915 391.804C428.904 394.81 435.103 398.004 440.551 401.366C447.539 405.668 451.916 418.762 454.565 435.951C462.473 487.63 454.64 576.561 454.64 576.561Z" fill="#39393B"/>
<path d="M424.186 557.996C423.603 557.996 423.096 557.583 422.964 557C417.949 532.203 416.277 501.338 414.924 476.541C413.797 455.971 412.745 436.547 410.096 434.217C407.955 432.32 399.069 433.804 387.835 435.664C365.462 439.383 331.647 444.981 294.377 436.321C274.069 431.587 259.135 421.725 250.005 406.997C234.244 381.599 241.439 350.095 241.514 349.776C241.664 349.099 242.34 348.686 243.017 348.855C243.693 349.006 244.106 349.682 243.937 350.358C243.862 350.659 236.93 381.185 252.147 405.701C260.919 419.846 275.328 429.333 294.959 433.898C331.76 442.464 365.274 436.904 387.46 433.222C400.741 431.024 408.762 429.69 411.787 432.357C415.056 435.25 415.976 449.452 417.441 476.41C418.794 501.132 420.466 531.884 425.444 556.512C425.576 557.188 425.144 557.846 424.467 557.977C424.355 557.977 424.279 557.996 424.186 557.996Z" fill="#585859"/>
<path d="M455.286 558.643H455.268L416.644 557.816C415.949 557.798 415.405 557.234 415.423 556.539C415.442 555.844 416.006 555.299 416.701 555.318L455.324 556.144C456.019 556.163 456.564 556.727 456.545 557.422C456.508 558.117 455.963 558.643 455.286 558.643Z" fill="#585859"/>
<path d="M453.646 621.07H429.131L424.416 592.309L421.823 576.566H452.275L452.763 592.309L453.646 621.07Z" fill="#EA9B7A"/>
<path d="M453.669 621.068H429.154L425.641 599.653L424.438 592.308H452.786L453.011 599.916L453.669 621.068Z" fill="#FAAF3A"/>
<path d="M453.011 599.916L425.641 599.653L424.438 592.308H452.786L453.011 599.916Z" fill="#C77E2E"/>
<path d="M514.129 659.781H421.403C420.708 658.523 420.333 656.757 420.182 654.634C419.6 646.782 422.099 634.27 423.32 626.381C423.47 625.46 423.601 624.596 423.695 623.826C423.864 622.511 423.977 621.402 423.977 620.595C423.977 614.151 429.669 615.259 429.669 615.259C439.043 624.464 449.676 610.676 455.875 615.184C455.875 615.184 456.119 615.372 456.702 615.804C457.228 616.217 458.017 616.856 459.106 617.777C460.684 619.092 462.901 621.008 465.907 623.713C473.271 630.344 485.782 634.703 496.433 639.155C497.786 639.718 499.045 640.282 500.228 640.864C501.111 641.296 501.956 641.728 502.745 642.142C511.462 646.838 514.223 651.347 514.862 654.615C515.482 657.753 514.129 659.781 514.129 659.781Z" fill="#FF6F00"/>
<path d="M502.791 642.166C500.406 644.063 495.089 647.876 490.825 647.876C490.637 647.876 490.449 647.876 490.261 647.858C487.256 647.613 476.21 642.184 467.211 637.244C462.064 634.407 457.349 631.627 453.967 629.391C448.426 625.728 447.449 624.338 447.242 623.361C446.434 619.698 452.483 617.162 456.729 615.828C457.255 616.241 458.044 616.88 459.134 617.801C453.874 619.228 449.534 621.483 449.741 622.76C450.267 623.85 455.752 628.02 468.864 635.215C478.877 640.7 488.364 645.115 490.468 645.303C493.323 645.528 497.513 642.936 500.255 640.888C501.176 641.301 502.002 641.734 502.791 642.166Z" fill="#084FC7"/>
<path d="M514.132 659.791H421.406C420.711 658.532 420.335 656.766 420.185 654.644H514.883C515.484 657.762 514.132 659.791 514.132 659.791Z" fill="#084FC7"/>
<path d="M430.915 659.778H428.154C430.896 656.641 433.47 651.813 433.132 644.937C432.681 635.77 427.196 629.608 423.363 626.377C423.514 625.457 423.645 624.592 423.739 623.822C427.853 626.959 434.785 633.854 435.33 644.825C435.668 651.4 433.508 656.303 430.915 659.778Z" fill="#084FC7"/>
<path d="M464.357 629.204C463.681 629.204 463.042 628.734 462.873 628.039C462.667 627.212 463.174 626.386 463.982 626.179L469.768 624.733C470.594 624.526 471.421 625.033 471.627 625.841C471.834 626.668 471.327 627.494 470.519 627.701L464.733 629.147C464.602 629.185 464.47 629.204 464.357 629.204Z" fill="white"/>
<path d="M458.647 624.377C457.952 624.377 457.332 623.907 457.163 623.212C456.957 622.385 457.464 621.559 458.272 621.352L464.058 619.906C464.884 619.699 465.711 620.206 465.918 621.014C466.124 621.84 465.617 622.667 464.809 622.874L459.023 624.32C458.892 624.358 458.779 624.377 458.647 624.377Z" fill="white"/>
<path d="M470.152 632.564C469.476 632.564 468.837 632.094 468.668 631.399C468.462 630.573 468.969 629.746 469.777 629.558L475.563 628.112C476.389 627.905 477.216 628.412 477.422 629.22C477.629 630.047 477.122 630.873 476.314 631.08L470.528 632.526C470.397 632.545 470.265 632.564 470.152 632.564Z" fill="white"/>
<path d="M475.948 635.8C475.272 635.8 474.633 635.331 474.464 634.635C474.258 633.809 474.765 632.982 475.573 632.794L481.359 631.348C482.185 631.141 483.012 631.649 483.218 632.456C483.425 633.283 482.918 634.109 482.11 634.316L476.324 635.763C476.192 635.781 476.08 635.8 475.948 635.8Z" fill="white"/>
<path d="M482.307 638.792C481.63 638.792 480.992 638.323 480.823 637.628C480.616 636.801 481.123 635.974 481.931 635.787L487.717 634.34C488.543 634.134 489.37 634.641 489.577 635.448C489.783 636.275 489.276 637.102 488.468 637.308L482.682 638.755C482.551 638.792 482.438 638.792 482.307 638.792Z" fill="white"/>
<path d="M489.133 641.336C488.438 641.336 487.818 640.866 487.649 640.171C487.442 639.344 487.949 638.518 488.757 638.311L494.543 636.865C495.37 636.658 496.196 637.165 496.403 637.973C496.61 638.799 496.102 639.626 495.294 639.833L489.509 641.279C489.377 641.317 489.246 641.336 489.133 641.336Z" fill="white"/>
<path d="M582.537 345.968V353.67C582.537 358.103 579.87 361.691 576.564 361.691H160.518C157.212 361.691 154.544 358.103 154.544 353.67V345.968C154.544 341.534 157.212 337.946 160.518 337.946H576.545C579.851 337.946 582.537 341.534 582.537 345.968Z" fill="#21B573"/>
<path d="M582.537 348.409H154.544V351.941H582.537V348.409Z" fill="#217C58"/>
<path d="M570.054 381.475H178.993C177.246 381.475 175.818 380.047 175.818 378.3V361.581H573.229V378.3C573.229 380.047 571.801 381.475 570.054 381.475Z" fill="#217C58"/>
<path d="M552.472 479.61H202.739V493.249H552.472V479.61Z" fill="#217C58"/>
<path d="M177.563 662.207L245.266 381.475H221.484L153.78 662.207H177.563Z" fill="#21B573"/>
<path d="M577.252 662.207L509.529 381.475H533.312L601.015 662.207H577.252Z" fill="#21B573"/>
<path d="M192.532 273.436L185.197 274.56L193.676 329.916L201.011 328.792L192.532 273.436Z" fill="#FAAF3A"/>
<path d="M192.538 273.403L185.212 274.53L186.827 268.932L187.654 266.021L189.326 268.538L192.538 273.403Z" fill="#EA9B7A"/>
<path d="M200.39 324.761L193.055 325.885L193.672 329.914L201.007 328.791L200.39 324.761Z" fill="#39393B"/>
<path d="M201.048 332.034L194.68 333.01C194.417 333.048 194.154 332.86 194.116 332.597L193.703 329.873L201.048 328.746L201.462 331.47C201.499 331.752 201.311 331.996 201.048 332.034Z" fill="#DF615C"/>
<path d="M189.339 268.538L186.841 268.932L187.667 266.021L189.339 268.538Z" fill="#39393B"/>
<path d="M199.966 321.866L192.631 322.989L193.072 325.868L200.407 324.744L199.966 321.866Z" fill="#C77E2E"/>
<path d="M187.451 276.974L193.725 317.964C193.782 318.283 194.064 318.49 194.364 318.433C194.665 318.377 194.89 318.095 194.834 317.795L188.559 276.804C188.503 276.504 188.221 276.278 187.921 276.335C187.62 276.372 187.395 276.673 187.451 276.974Z" fill="#C77E2E"/>
<path d="M190.322 276.541L196.597 317.531C196.653 317.832 196.935 318.057 197.235 318.001C197.555 317.944 197.761 317.663 197.705 317.362L191.431 276.372C191.374 276.071 191.092 275.846 190.792 275.902C190.491 275.94 190.266 276.222 190.322 276.541Z" fill="#C77E2E"/>
<path d="M205.816 273.66L198.396 273.685L198.58 329.685L206 329.66L205.816 273.66Z" fill="#21B573"/>
<path d="M205.836 273.669L198.416 273.688L200.839 268.39L202.098 265.629L203.375 268.372L205.836 273.669Z" fill="#EA9B7A"/>
<path d="M205.992 325.598L198.571 325.622L198.585 329.699L206.005 329.674L205.992 325.598Z" fill="#39393B"/>
<path d="M205.535 332.896L199.092 332.915C198.81 332.915 198.604 332.69 198.604 332.427V329.684L206.024 329.665V332.408C206.024 332.671 205.817 332.896 205.535 332.896Z" fill="#DF615C"/>
<path d="M203.387 268.372L200.851 268.39L202.109 265.629L203.387 268.372Z" fill="#39393B"/>
<path d="M205.979 322.671L198.559 322.695L198.568 325.607L205.988 325.583L205.979 322.671Z" fill="#217C58"/>
<path d="M200.254 276.449L200.385 317.909C200.385 318.229 200.648 318.473 200.949 318.473C201.268 318.473 201.513 318.21 201.513 317.909L201.381 276.449C201.381 276.13 201.118 275.886 200.817 275.886C200.517 275.867 200.254 276.13 200.254 276.449Z" fill="#217C58"/>
<path d="M203.157 276.425L203.289 317.885C203.289 318.204 203.552 318.448 203.852 318.448C204.172 318.448 204.416 318.185 204.416 317.885L204.284 276.425C204.284 276.106 204.021 275.861 203.721 275.861C203.42 275.861 203.157 276.106 203.157 276.425Z" fill="#217C58"/>
<path d="M211.305 273.381L203.432 328.826L210.779 329.869L218.652 274.424L211.305 273.381Z" fill="#FF6F00"/>
<path d="M218.629 274.459L211.284 273.407L214.44 268.504L216.093 265.968L216.957 268.861L218.629 274.459Z" fill="#EA9B7A"/>
<path d="M211.354 325.88L204.007 324.837L203.434 328.873L210.781 329.916L211.354 325.88Z" fill="#39393B"/>
<path d="M209.811 333.03L203.442 332.128C203.179 332.091 202.992 331.846 203.029 331.565L203.424 328.841L210.769 329.893L210.374 332.617C210.318 332.88 210.074 333.068 209.811 333.03Z" fill="#DF615C"/>
<path d="M216.951 268.861L214.434 268.504L216.087 265.968L216.951 268.861Z" fill="#39393B"/>
<path d="M204.401 321.924L203.991 324.807L211.338 325.851L211.748 322.968L204.401 321.924Z" fill="#084FC7"/>
<path d="M212.72 276.391L206.896 317.438C206.858 317.757 207.065 318.039 207.384 318.076C207.704 318.114 207.986 317.907 208.023 317.588L213.847 276.541C213.884 276.222 213.678 275.94 213.358 275.903C213.058 275.865 212.776 276.09 212.72 276.391Z" fill="#084FC7"/>
<path d="M215.611 276.805L209.788 317.852C209.75 318.171 209.957 318.453 210.276 318.491C210.595 318.528 210.877 318.322 210.915 318.002L216.738 276.956C216.776 276.636 216.569 276.354 216.25 276.317C215.931 276.279 215.649 276.486 215.611 276.805Z" fill="#084FC7"/>
<path d="M221.065 295.819L220.67 298.825L220.313 301.549L219.787 305.682L219.431 308.387L218.905 312.557L218.548 315.225L218.003 319.433L217.665 322.063L217.12 326.308L216.782 328.901L216.237 333.184L215.899 335.739L215.617 337.956H186.424L186.142 335.739L185.804 333.184L185.259 328.901L184.921 326.308L184.377 322.063L184.038 319.433L183.494 315.225L183.155 312.557L182.611 308.387L182.273 305.682L181.728 301.549L181.371 298.825L180.995 295.819H221.065Z" fill="#DF615C"/>
<path d="M220.669 298.823L220.312 301.547H181.726L181.369 298.823H220.669Z" fill="#B11722"/>
<path d="M219.777 305.679L219.42 308.384H182.6L182.262 305.679H219.777Z" fill="#B11722"/>
<path d="M218.893 312.558L218.536 315.225H183.482L183.144 312.558H218.893Z" fill="#B11722"/>
<path d="M217.991 319.432L217.653 322.062H184.365L184.026 319.432H217.991Z" fill="#B11722"/>
<path d="M217.12 326.307L216.782 328.899H185.26L184.922 326.307H217.12Z" fill="#B11722"/>
<path d="M216.236 333.182L215.898 335.736H186.142L185.804 333.182H216.236Z" fill="#B11722"/>
<path d="M580.133 189.075L555.242 294.35L554.585 297.112L552.913 304.194C552.18 307.275 549.456 309.435 546.3 309.435H378.601C374.205 309.435 370.974 305.34 371.988 301.075L399.209 185.938C399.941 182.876 402.665 180.716 405.821 180.716H573.502C577.898 180.716 581.129 184.811 580.133 189.075Z" fill="#39393B"/>
<path d="M555.22 294.331L554.581 297.111H380.457V294.331H555.22Z" fill="#585859"/>
<path d="M446.166 206.751C444.776 214.209 437.599 220.258 430.142 220.258C422.684 220.258 417.762 214.209 419.152 206.751C420.542 199.293 427.718 193.244 435.176 193.244C442.653 193.244 447.556 199.293 446.166 206.751Z" fill="#FAAF3A"/>
<path d="M430.956 204.19C430.674 205.674 429.923 206.895 429.284 206.895C428.626 206.895 428.326 205.692 428.608 204.19C428.889 202.705 429.641 201.484 430.28 201.484C430.937 201.484 431.238 202.687 430.956 204.19Z" fill="#39393B"/>
<path d="M437.975 204.19C437.693 205.674 436.941 206.895 436.303 206.895C435.664 206.895 435.345 205.692 435.626 204.19C435.908 202.705 436.66 201.484 437.298 201.484C437.956 201.484 438.256 202.687 437.975 204.19Z" fill="#39393B"/>
<path d="M431.565 213.341C425.76 213.341 425.516 207.536 425.516 207.48C425.497 207.161 425.76 206.841 426.098 206.785C426.436 206.71 426.699 206.916 426.718 207.236C426.718 207.442 426.943 212.176 431.809 212.176C436.655 212.176 438.647 207.442 438.741 207.236C438.872 206.916 439.229 206.729 439.53 206.785C439.83 206.86 439.981 207.161 439.849 207.48C439.793 207.518 437.369 213.341 431.565 213.341Z" fill="#39393B"/>
<path d="M523.694 269.833C523.844 276.821 535.679 285.575 535.679 285.575C535.679 285.575 549.43 276.821 551.102 269.833C552.905 262.262 544.264 259.933 537.858 265.644C532.692 259.933 523.525 262.262 523.694 269.833Z" fill="#DF615C"/>
<path d="M498.628 249.56C497.82 256.811 491.302 262.672 484.069 262.672C476.837 262.672 471.596 256.792 472.403 249.56C473.211 242.308 479.73 236.447 486.962 236.447C494.214 236.447 499.436 242.327 498.628 249.56Z" fill="#585859"/>
<path d="M412.501 180.721L383.514 309.44H378.63C374.234 309.44 371.003 305.345 372.017 301.081L399.238 185.943C399.971 182.881 402.694 180.702 405.85 180.702H412.501V180.721Z" fill="#585859"/>
<path d="M461.031 309.437L455.94 338.047H472.754L477.845 309.437H461.031Z" fill="white"/>
<path d="M430.805 333.126L434.243 328.298C435.464 326.57 437.455 325.556 439.578 325.556H485.641C488.083 325.556 490.318 326.908 491.445 329.069L493.756 333.502C494.846 335.568 493.343 338.067 490.995 338.067H433.341C430.805 338.048 429.34 335.174 430.805 333.126Z" fill="white"/>
<path d="M334.818 338.025H473.193L474.696 332.802C475.636 329.515 473.175 326.246 469.756 326.246H342.07C339.778 326.246 337.768 327.768 337.129 329.966L334.818 338.025Z" fill="white"/>
<path d="M516.255 146.336L455.051 146.299C452.684 146.299 450.749 144.364 450.749 141.997L450.768 104.388C450.768 102.021 452.703 100.086 455.07 100.086L516.273 100.124C518.64 100.124 520.575 102.058 520.575 104.425L520.557 142.034C520.557 144.42 518.64 146.336 516.255 146.336Z" fill="#DF615C"/>
<path d="M512.609 139.404L507.03 160.482L497.28 140.663L512.609 139.404Z" fill="#DF615C"/>
<path d="M501.112 119.811C499.872 127.701 485.125 137.583 485.125 137.583C485.125 137.583 470.942 127.683 470.134 119.774C469.251 111.208 479.395 108.596 485.764 115.059C492.47 108.615 502.464 111.245 501.112 119.811Z" fill="white"/>
<path d="M559.624 638.396C617.185 638.396 663.847 633.787 663.847 628.101C663.847 622.416 617.185 617.807 559.624 617.807C502.063 617.807 455.401 622.416 455.401 628.101C455.401 633.787 502.063 638.396 559.624 638.396Z" fill="#F4EEE2"/>
<path d="M623.436 553.656H491.861C489.363 553.656 487.334 551.627 487.334 549.128V547.043C487.334 544.544 489.363 542.516 491.861 542.516H623.436C625.935 542.516 627.963 544.544 627.963 547.043V549.128C627.963 551.627 625.935 553.656 623.436 553.656Z" fill="#39393B"/>
<path d="M493.522 419.111H622.072C624.214 419.111 625.942 420.84 625.942 422.981V438.78C625.942 440.921 624.214 442.65 622.072 442.65H493.522C491.381 442.65 489.652 440.921 489.652 438.78V422.981C489.652 420.84 491.381 419.111 493.522 419.111Z" fill="#585859"/>
<path d="M523.87 318.985C523.87 318.985 469.673 308.277 454.551 270.462C439.428 232.646 494.733 204.28 523.87 224.587C555.054 246.303 523.87 318.985 523.87 318.985Z" fill="#21B573"/>
<path d="M556.116 418.342C555.646 418.342 555.214 417.985 555.139 417.496C549.954 382.367 529.008 331.834 512.383 295.634C494.33 256.372 477.31 225.037 477.141 224.718C476.878 224.248 477.066 223.647 477.536 223.384C478.005 223.121 478.606 223.309 478.869 223.779C479.038 224.098 496.096 255.489 514.186 294.807C530.887 331.139 551.889 381.86 557.112 417.215C557.187 417.759 556.83 418.248 556.285 418.323C556.21 418.323 556.154 418.342 556.116 418.342Z" fill="#39393B"/>
<path d="M521.841 315.319C521.484 315.319 521.146 315.131 520.977 314.812C497.401 270.91 459.115 239.049 458.74 238.73C458.326 238.392 458.27 237.772 458.608 237.359C458.946 236.945 459.566 236.889 459.979 237.227C460.374 237.547 498.941 269.632 522.705 313.891C522.968 314.361 522.78 314.962 522.31 315.225C522.141 315.282 521.991 315.319 521.841 315.319Z" fill="#39393B"/>
<path d="M522.913 318.475C522.631 318.475 522.368 318.363 522.161 318.137C504.973 297.905 487.352 285.319 475.611 278.33C462.874 270.76 454.101 267.923 454.026 267.904C453.519 267.735 453.218 267.191 453.387 266.665C453.556 266.157 454.101 265.857 454.627 266.026C454.984 266.139 463.663 268.919 476.569 276.602C488.46 283.666 506.288 296.402 523.664 316.86C524.021 317.273 523.965 317.893 523.552 318.25C523.364 318.4 523.12 318.475 522.913 318.475Z" fill="#39393B"/>
<path d="M518.146 306.962C517.732 306.962 517.357 306.699 517.225 306.304C504 267.512 508.865 220.378 508.922 219.909C508.978 219.364 509.467 218.988 509.993 219.045C510.537 219.101 510.913 219.589 510.857 220.115C510.8 220.585 505.991 267.305 519.066 305.665C519.235 306.173 518.972 306.736 518.446 306.905C518.352 306.943 518.24 306.962 518.146 306.962Z" fill="#39393B"/>
<path d="M521.471 314.644C521.002 314.644 520.589 314.306 520.513 313.818C516.475 289.265 519.574 269.24 522.899 256.766C526.506 243.221 531.015 235.594 531.202 235.275C531.484 234.805 532.085 234.655 532.555 234.937C533.025 235.219 533.175 235.82 532.893 236.29C532.856 236.365 528.309 244.048 524.778 257.367C521.528 269.634 518.485 289.359 522.448 313.517C522.542 314.043 522.167 314.551 521.641 314.644C521.565 314.626 521.509 314.644 521.471 314.644Z" fill="#39393B"/>
<path d="M581.043 328.865C581.043 328.865 635.785 321.369 653.124 284.53C670.463 247.673 616.924 216.094 586.641 234.636C554.217 254.473 581.043 328.865 581.043 328.865Z" fill="#21B573"/>
<path d="M560.286 415.129C559.741 415.129 559.29 414.678 559.309 414.133C559.516 396.043 563.461 375.435 571.031 352.892C577.08 334.877 585.421 315.584 595.866 295.558C613.619 261.462 631.502 236.684 631.69 236.44C632.01 236.008 632.63 235.895 633.062 236.214C633.494 236.534 633.606 237.154 633.287 237.586C633.118 237.83 615.309 262.514 597.613 296.479C581.307 327.794 561.77 373.613 561.3 414.152C561.263 414.697 560.831 415.129 560.286 415.129Z" fill="#39393B"/>
<path d="M583.347 325.332C583.178 325.332 582.99 325.295 582.84 325.182C582.37 324.9 582.238 324.299 582.52 323.829C608.858 281.054 649.266 251.298 649.679 250.997C650.111 250.678 650.731 250.772 651.05 251.204C651.37 251.636 651.276 252.256 650.844 252.575C650.449 252.876 610.342 282.407 584.211 324.844C584.004 325.163 583.685 325.332 583.347 325.332Z" fill="#39393B"/>
<path d="M582.092 328.414C581.847 328.414 581.603 328.32 581.415 328.151C581.021 327.775 581.002 327.155 581.378 326.761C599.957 307.355 618.498 295.708 630.784 289.358C644.122 282.464 652.932 280.191 653.308 280.097C653.834 279.965 654.36 280.285 654.492 280.811C654.623 281.337 654.304 281.863 653.778 281.994C653.684 282.013 644.761 284.324 631.611 291.124C619.475 297.399 601.159 308.933 582.787 328.113C582.618 328.301 582.355 328.414 582.092 328.414Z" fill="#39393B"/>
<path d="M587.534 317.2C587.403 317.2 587.29 317.181 587.158 317.124C586.651 316.918 586.426 316.354 586.614 315.847C601.943 278.313 599.895 231.406 599.876 230.936C599.858 230.391 600.271 229.94 600.816 229.903C601.342 229.865 601.811 230.297 601.849 230.842C601.868 231.312 603.934 278.651 588.455 316.598C588.286 316.974 587.929 317.2 587.534 317.2Z" fill="#39393B"/>
<path d="M583.761 324.676C583.686 324.676 583.611 324.676 583.535 324.658C583.009 324.545 582.671 324.019 582.803 323.493C588.213 299.598 586.334 279.741 583.817 267.305C581.074 253.817 577.017 245.871 576.979 245.777C576.735 245.288 576.923 244.706 577.393 244.462C577.881 244.217 578.463 244.405 578.708 244.875C578.877 245.194 582.915 253.084 585.715 266.835C588.288 279.497 590.204 299.673 584.719 323.925C584.625 324.357 584.212 324.676 583.761 324.676Z" fill="#39393B"/>
<path d="M559.954 257.551C559.954 257.551 513.572 227.531 513.516 186.804C513.459 146.077 575.339 140.216 594.895 169.859C615.841 201.588 559.954 257.551 559.954 257.551Z" fill="#21B573"/>
<path d="M553.482 361.832C553.407 361.832 553.331 361.832 553.256 361.813C552.73 361.681 552.411 361.155 552.524 360.629C560.714 326.083 559.982 271.379 557.934 231.591C555.717 188.44 551.49 153.01 551.453 152.672C551.396 152.128 551.772 151.639 552.317 151.583C552.843 151.526 553.35 151.902 553.407 152.447C553.444 152.804 557.671 188.29 559.906 231.497C561.973 271.416 562.687 326.308 554.459 361.08C554.327 361.531 553.933 361.832 553.482 361.832Z" fill="#39393B"/>
<path d="M559.796 253.476C559.307 253.476 558.875 253.1 558.819 252.611C553.183 203.092 529.419 159.322 529.175 158.89C528.912 158.42 529.081 157.819 529.57 157.556C530.039 157.293 530.64 157.462 530.903 157.951C531.148 158.383 555.099 202.491 560.773 252.405C560.829 252.95 560.453 253.438 559.909 253.494C559.871 253.476 559.833 253.476 559.796 253.476Z" fill="#39393B"/>
<path d="M559.617 256.781C559.203 256.781 558.828 256.519 558.696 256.105C550.224 230.932 538.521 212.729 530.198 201.89C521.181 190.13 514.08 184.269 514.005 184.213C513.592 183.874 513.517 183.254 513.874 182.841C514.212 182.428 514.832 182.353 515.245 182.71C515.546 182.954 522.553 188.74 531.701 200.65C540.136 211.621 551.971 230.031 560.537 255.485C560.706 255.992 560.443 256.556 559.917 256.725C559.823 256.763 559.729 256.781 559.617 256.781Z" fill="#39393B"/>
<path d="M559.449 244.329C559.43 244.329 559.411 244.329 559.393 244.329C558.848 244.31 558.435 243.84 558.472 243.296C560.557 202.381 582.536 160.395 582.743 159.963C583.006 159.474 583.589 159.305 584.077 159.549C584.565 159.793 584.735 160.395 584.49 160.883C584.265 161.296 562.492 202.907 560.445 243.39C560.407 243.916 559.975 244.329 559.449 244.329Z" fill="#39393B"/>
<path d="M559.693 252.688C559.618 252.688 559.561 252.688 559.486 252.669C558.96 252.557 558.622 252.031 558.735 251.505C564.07 227.196 574.402 209.613 582.142 199.13C590.539 187.746 597.565 182.205 597.865 181.979C598.297 181.641 598.917 181.716 599.236 182.148C599.575 182.58 599.499 183.2 599.067 183.52C598.992 183.576 591.91 189.174 583.663 200.351C576.055 210.665 565.892 227.985 560.651 251.918C560.557 252.388 560.144 252.688 559.693 252.688Z" fill="#39393B"/>
<path d="M616.637 356.573L615.021 360.856L614.007 363.58L611.076 371.357L610.043 374.081L607.037 382.084L606.023 384.789L593.098 419.092H522.502L509.577 384.789L508.563 382.084L505.557 374.081L504.524 371.357L501.593 363.58L500.579 360.856L498.963 356.573C497.855 353.624 500.034 350.486 503.171 350.486H612.448C615.566 350.486 617.745 353.624 616.637 356.573Z" fill="#F4EEE2"/>
<path d="M615.015 360.855L614 363.579H501.587L500.554 360.855H615.015Z" fill="#0D1B2A"/>
<path d="M611.054 371.356L610.039 374.08H505.535L504.521 371.356H611.054Z" fill="#0D1B2A"/>
<path d="M607.017 382.083L606.003 384.788H509.576L508.562 382.083H607.017Z" fill="#0D1B2A"/>
<path d="M538.887 442.631L534.98 455.255L480.482 630.901H469.831L504.378 458.843L507.647 442.631H538.887Z" fill="#39393B"/>
<path d="M646.081 630.901H635.43L579.336 450.051L577.025 442.631H608.266L609.055 446.576L646.081 630.901Z" fill="#39393B"/>
<path d="M623.436 529.438H491.861C489.363 529.438 487.334 527.409 487.334 524.91V522.825C487.334 520.327 489.363 518.298 491.861 518.298H623.417C625.916 518.298 627.945 520.327 627.945 522.825V524.91C627.963 527.409 625.935 529.438 623.436 529.438Z" fill="#585859"/>
<path d="M457.716 107.153C485.853 107.153 508.663 84.6294 508.663 56.8451C508.663 29.0608 485.853 6.53711 457.716 6.53711C429.579 6.53711 406.77 29.0608 406.77 56.8451C406.77 84.6294 429.579 107.153 457.716 107.153Z" fill="#CED3E6"/>
<path d="M457.716 100.616C485.853 100.616 508.663 78.0923 508.663 50.308C508.663 22.5236 485.853 0 457.716 0C429.579 0 406.77 22.5236 406.77 50.308C406.77 78.0923 429.579 100.616 457.716 100.616Z" fill="#0875F7"/>
<path d="M457.716 91.2019C480.583 91.2019 499.12 72.892 499.12 50.3055C499.12 27.7191 480.583 9.40918 457.716 9.40918C434.85 9.40918 416.312 27.7191 416.312 50.3055C416.312 72.892 434.85 91.2019 457.716 91.2019Z" fill="white"/>
<path d="M499.109 50.3075C499.109 51.3971 499.072 52.4679 498.978 53.5386C497.306 32.4987 479.422 15.8734 457.687 15.8734C435.952 15.8734 418.087 32.4987 416.396 53.5386C416.321 52.4679 416.265 51.3971 416.265 50.3075C416.265 27.7459 434.844 9.41113 457.668 9.41113C480.53 9.41113 499.109 27.7459 499.109 50.3075Z" fill="#CED3E6"/>
<path d="M457.71 54.5531C457.391 54.5531 457.071 54.4028 456.884 54.1398L436.576 27.126C436.238 26.6752 436.332 26.0365 436.783 25.6983C437.234 25.3602 437.891 25.4541 438.229 25.905L458.048 52.2613L480.572 42.4927C481.098 42.2673 481.699 42.4927 481.944 43.0187C482.169 43.5447 481.944 44.1458 481.418 44.3713L458.142 54.4592C457.992 54.5343 457.842 54.5531 457.71 54.5531Z" fill="#39393B"/>
<path d="M624.512 523.323C624.512 526.144 622.221 528.436 619.399 528.436C616.577 528.436 614.285 526.144 614.285 523.323C614.285 520.501 616.577 518.209 619.399 518.209C622.221 518.209 624.512 520.495 624.512 523.323Z" stroke="#4D2C5E" stroke-opacity="0.1" stroke-width="2.1115" stroke-miterlimit="10" stroke-linecap="round" stroke-linejoin="round"/>
<path d="M674.123 567.672C676.948 567.672 679.237 565.382 679.237 562.558C679.237 559.734 676.948 557.444 674.123 557.444C671.299 557.444 669.01 559.734 669.01 562.558C669.01 565.382 671.299 567.672 674.123 567.672Z" stroke="#4D2C5E" stroke-opacity="0.1" stroke-width="2.1115" stroke-miterlimit="10" stroke-linecap="round" stroke-linejoin="round"/>
<path d="M654.872 552.045C660.895 552.045 665.778 547.163 665.778 541.139C665.778 535.116 660.895 530.233 654.872 530.233C648.849 530.233 643.966 535.116 643.966 541.139C643.966 547.163 648.849 552.045 654.872 552.045Z" stroke="#4D2C5E" stroke-opacity="0.1" stroke-width="2.1115" stroke-miterlimit="10" stroke-linecap="round" stroke-linejoin="round"/>
<path d="M673.878 541.139L670.241 547.497L668.312 554.575L661.24 556.498L654.876 560.141L648.512 556.498L641.434 554.575L639.511 547.497L635.868 541.139L639.511 534.775L641.434 527.697L648.512 525.774L654.876 522.131L661.24 525.774L668.312 527.697L670.241 534.775L673.878 541.139Z" stroke="#4D2C5E" stroke-opacity="0.1" stroke-width="2.1115" stroke-miterlimit="10" stroke-linecap="round" stroke-linejoin="round"/>
<path d="M669.01 562.559C669.01 559.737 671.302 557.445 674.123 557.445C675.647 557.445 677.017 558.118 677.951 559.177C681.844 554.201 684.172 547.944 684.172 541.134C684.172 524.948 671.052 511.827 654.865 511.827C638.679 511.827 625.559 524.948 625.559 541.134C625.559 557.32 638.679 570.441 654.865 570.441C660.556 570.441 665.861 568.815 670.355 566.012C669.528 565.101 669.01 563.892 669.01 562.559Z" stroke="#4D2C5E" stroke-opacity="0.1" stroke-width="2.1115" stroke-miterlimit="10" stroke-linecap="round" stroke-linejoin="round"/>
<path d="M654.876 501.48C641.202 501.48 629.141 508.404 622.015 518.935C623.509 519.828 624.515 521.459 624.515 523.328C624.515 526.15 622.223 528.442 619.402 528.442C618.705 528.442 618.044 528.299 617.443 528.049C616.008 532.15 615.223 536.55 615.223 541.14C615.223 563.041 632.981 580.799 654.882 580.799C676.783 580.799 694.541 563.041 694.541 541.14C694.541 519.238 676.777 501.48 654.876 501.48Z" stroke="#4D2C5E" stroke-opacity="0.1" stroke-width="2.1115" stroke-miterlimit="10" stroke-linecap="round" stroke-linejoin="round"/>
<path d="M202.367 84.6983L177.762 76.3415C175.162 75.4608 173.774 72.6352 174.654 70.0352C175.535 67.4351 178.361 66.0471 180.954 66.9278L205.559 75.2846C208.159 76.1654 209.547 78.9909 208.666 81.5839C207.786 84.191 204.967 85.5861 202.367 84.6983Z" stroke="#4D2C5E" stroke-opacity="0.1" stroke-width="3.16725" stroke-miterlimit="10"/>
<path d="M199.134 94.2265L174.528 85.8697C171.928 84.9889 170.54 82.1634 171.421 79.5704C172.302 76.9703 175.127 75.5822 177.727 76.463L202.333 84.8127C204.933 85.6935 206.321 88.5191 205.44 91.1191C204.552 93.7191 201.734 95.1072 199.134 94.2265Z" stroke="#4D2C5E" stroke-opacity="0.1" stroke-width="3.16725" stroke-miterlimit="10"/>
<path d="M177.262 41.2311C177.29 41.3157 177.311 41.3932 177.339 41.4777C177.889 43.2322 181.13 54.3511 179.777 66.689L206.172 75.3981C212.429 64.6809 221.653 57.684 223.14 56.5988C223.21 56.5495 223.281 56.5002 223.344 56.4509C224.063 55.9365 224.76 55.3869 225.437 54.8021C229.411 51.3706 232.539 46.854 234.301 41.513C239.494 25.7859 230.954 8.82567 215.227 3.63262C199.5 -1.56042 182.539 6.97957 177.346 22.7067C175.578 28.0547 175.402 33.5437 176.557 38.6663C176.754 39.526 176.987 40.3856 177.262 41.2311Z" stroke="#4D2C5E" stroke-opacity="0.1" stroke-width="3.16725" stroke-miterlimit="10"/>
<path d="M175.872 86.4473C175.576 91.6614 178.789 96.629 183.99 98.3483C189.119 100.039 194.58 98.0312 197.483 93.7823L175.872 86.4473Z" stroke="#4D2C5E" stroke-opacity="0.1" stroke-width="3.16725" stroke-miterlimit="10"/>
<path d="M188.046 69.2752L195.888 45.5084C196.663 43.169 195.388 40.6465 193.048 39.8714C190.709 39.0963 188.187 40.3717 187.411 42.7111C186.636 45.0504 187.912 47.5729 190.251 48.348L199.665 51.4554" stroke="#4D2C5E" stroke-opacity="0.1" stroke-width="3.16725" stroke-miterlimit="10"/>
<path d="M198.385 72.6929L206.227 48.9261C207.002 46.5868 209.525 45.3185 211.864 46.0865C214.203 46.8616 215.472 49.3841 214.704 51.7235C213.929 54.0628 211.406 55.3311 209.067 54.5631L199.653 51.4557" stroke="#4D2C5E" stroke-opacity="0.1" stroke-width="3.16725" stroke-miterlimit="10"/>
<path d="M239.879 49.7021L247.827 52.3304" stroke="#4D2C5E" stroke-opacity="0.1" stroke-width="3.16725" stroke-miterlimit="10" stroke-linecap="round"/>
<path d="M243.521 39.6895L251.8 38.4424" stroke="#4D2C5E" stroke-opacity="0.1" stroke-width="3.16725" stroke-miterlimit="10" stroke-linecap="round"/>
<path d="M234.32 58.291L240.225 64.2239" stroke="#4D2C5E" stroke-opacity="0.1" stroke-width="3.16725" stroke-miterlimit="10" stroke-linecap="round"/>
<path d="M166.053 25.336L158.104 22.7148" stroke="#4D2C5E" stroke-opacity="0.1" stroke-width="3.16725" stroke-miterlimit="10" stroke-linecap="round"/>
<path d="M169.089 15.1185L163.185 9.18555" stroke="#4D2C5E" stroke-opacity="0.1" stroke-width="3.16725" stroke-miterlimit="10" stroke-linecap="round"/>
<path d="M165.411 35.5449L157.139 36.7921" stroke="#4D2C5E" stroke-opacity="0.1" stroke-width="3.16725" stroke-miterlimit="10" stroke-linecap="round"/>
<path d="M83.2295 274.05L10.1669 252.224C4.85299 250.639 1.83683 245.046 3.42232 239.732L18.0138 190.867C19.5993 185.553 25.1919 182.537 30.5057 184.123L103.568 205.948C108.882 207.533 111.898 213.126 110.313 218.44L95.7215 267.305C94.1298 272.613 88.5372 275.635 83.2295 274.05Z" stroke="#4D2C5E" stroke-opacity="0.1" stroke-width="4.223" stroke-miterlimit="10" stroke-linecap="round"/>
<path d="M5.14453 233.955L97.4437 261.528" stroke="#4D2C5E" stroke-opacity="0.1" stroke-width="4.223" stroke-miterlimit="10" stroke-linecap="round"/>
<path d="M51.5218 255.749C51.1254 257.075 49.7258 257.83 48.4004 257.434C47.075 257.038 46.3194 255.638 46.7158 254.313C47.1122 252.987 48.5119 252.232 49.8372 252.628C51.1626 253.024 51.9182 254.424 51.5218 255.749Z" fill="#4D2C5E"/>
<path d="M57.0547 266.237L36.3613 260.057L33.5731 269.392L54.2665 275.572L57.0547 266.237Z" stroke="#4D2C5E" stroke-opacity="0.1" stroke-width="4.223" stroke-miterlimit="10" stroke-linecap="round"/>
<path d="M25.8955 267.633L61.6187 278.304" stroke="#4D2C5E" stroke-opacity="0.1" stroke-width="4.223" stroke-miterlimit="10" stroke-linecap="round"/>
<path d="M648.36 86.3984C671.264 86.3984 689.83 77.5976 689.83 66.7412C689.83 55.8848 671.264 47.084 648.36 47.084C625.457 47.084 606.891 55.8848 606.891 66.7412C606.891 77.5976 625.457 86.3984 648.36 86.3984Z" stroke="#4D2C5E" stroke-opacity="0.1" stroke-width="3.16725" stroke-miterlimit="10" stroke-linecap="round" stroke-linejoin="round"/>
<path d="M665.13 76.987C677.04 57.4254 679.178 36.9911 669.905 31.3458C660.633 25.7005 643.461 36.9819 631.552 56.5435C619.642 76.1051 617.504 96.5393 626.777 102.185C636.049 107.83 653.22 96.5486 665.13 76.987Z" stroke="#4D2C5E" stroke-opacity="0.1" stroke-width="3.16725" stroke-miterlimit="10" stroke-linecap="round" stroke-linejoin="round"/>
<path d="M669.898 102.177C679.171 96.5314 677.033 76.0971 665.123 56.5355C653.214 36.9739 636.042 25.6925 626.77 31.3378C617.497 36.9831 619.635 57.4174 631.545 76.979C643.454 96.5406 660.626 107.822 669.898 102.177Z" stroke="#4D2C5E" stroke-opacity="0.1" stroke-width="3.16725" stroke-miterlimit="10" stroke-linecap="round" stroke-linejoin="round"/>
<path d="M648.361 71.9452C651.235 71.9452 653.564 69.6155 653.564 66.7417C653.564 63.8678 651.235 61.5381 648.361 61.5381C645.487 61.5381 643.157 63.8678 643.157 66.7417C643.157 69.6155 645.487 71.9452 648.361 71.9452Z" stroke="#4D2C5E" stroke-opacity="0.1" stroke-width="3.16725" stroke-miterlimit="10" stroke-linecap="round" stroke-linejoin="round"/>
<path d="M98.3257 542.276L64.0828 550.181L62.5431 543.506C62.1895 541.959 63.1473 540.419 64.6944 540.058L93.3381 533.443C94.8852 533.089 96.4249 534.047 96.7859 535.594L98.3257 542.276Z" stroke="#4D2C5E" stroke-opacity="0.1" stroke-width="3.16725" stroke-miterlimit="10" stroke-linecap="round"/>
<path d="M87.0713 506.383C102.165 494.213 104.535 472.112 92.3651 457.018C80.1954 441.925 58.0943 439.555 43.0009 451.725C27.9074 463.894 25.5374 485.995 37.7071 501.089C49.8768 516.182 71.9779 518.552 87.0713 506.383Z" stroke="#4D2C5E" stroke-opacity="0.1" stroke-width="3.16725" stroke-miterlimit="10"/>
<path d="M81.3764 510.112L48.6365 448.006L44.5477 440.47C23.2049 451.719 15.0273 478.138 26.277 499.481C37.5268 520.824 63.9455 529.001 85.2883 517.752L81.288 510.163" stroke="#4D2C5E" stroke-opacity="0.1" stroke-width="3.16725" stroke-miterlimit="10" stroke-linecap="round" stroke-linejoin="round"/>
<path d="M55.8509 461.615C66.5695 455.964 73.648 448.328 71.6611 444.559C69.6742 440.791 59.3744 442.317 48.6558 447.969C37.9372 453.62 30.8587 461.256 32.8456 465.025C34.8325 468.793 45.1323 467.267 55.8509 461.615Z" stroke="#4D2C5E" stroke-opacity="0.1" stroke-width="3.16725" stroke-miterlimit="10"/>
<path d="M58.3662 513.523C65.9323 514.981 74.029 513.987 81.3741 510.112C88.7192 506.237 94.1193 500.122 97.1914 493.057C89.6253 491.598 81.5288 492.593 74.1837 496.468C66.8312 500.343 61.4383 506.458 58.3662 513.523Z" stroke="#4D2C5E" stroke-opacity="0.1" stroke-width="3.16725" stroke-miterlimit="10"/>
<path d="M81.4001 510.074C89.9735 505.554 89.5933 487.986 80.5508 470.836C71.5084 453.685 57.2278 443.446 48.6544 447.967C40.081 452.487 40.4612 470.055 49.5037 487.205C58.5462 504.355 72.8266 514.594 81.4001 510.074Z" stroke="#4D2C5E" stroke-opacity="0.1" stroke-width="3.16725" stroke-miterlimit="10"/>
<path d="M33.9531 495.428L96.0586 462.688" stroke="#4D2C5E" stroke-opacity="0.1" stroke-width="3.16725" stroke-miterlimit="10"/>
<path d="M75.2021 521.575L78.8268 536.693" stroke="#4D2C5E" stroke-opacity="0.1" stroke-width="3.16725" stroke-miterlimit="10"/>
<path d="M59.9746 551.59L103.625 541.121" stroke="#4D2C5E" stroke-opacity="0.1" stroke-width="3.16725" stroke-miterlimit="10" stroke-linecap="round"/>
<path d="M707.945 426.548L726.215 408.278L675.591 357.655L657.322 375.924L707.945 426.548Z" stroke="#4D2C5E" stroke-opacity="0.1" stroke-width="3.16725" stroke-miterlimit="10" stroke-linecap="round" stroke-linejoin="round"/>
<path d="M731.157 431.491L726.212 408.275L707.941 426.546L731.157 431.491Z" stroke="#4D2C5E" stroke-opacity="0.1" stroke-width="3.16725" stroke-miterlimit="10" stroke-linecap="round" stroke-linejoin="round"/>
<path d="M728.853 420.659L720.321 429.183" stroke="#4D2C5E" stroke-opacity="0.1" stroke-width="3.16725" stroke-miterlimit="10" stroke-linecap="round" stroke-linejoin="round"/>
<path d="M651.944 361.997L661.658 352.283C664.022 349.919 667.85 349.919 670.214 352.283L675.586 357.655L657.316 375.925L651.944 370.553C649.58 368.189 649.58 364.353 651.944 361.997Z" stroke="#4D2C5E" stroke-opacity="0.1" stroke-width="3.16725" stroke-miterlimit="10" stroke-linecap="round" stroke-linejoin="round"/>
<path d="M680.521 362.583L662.251 380.861" stroke="#4D2C5E" stroke-opacity="0.1" stroke-width="3.16725" stroke-miterlimit="10" stroke-linecap="round" stroke-linejoin="round"/>
<path d="M717.082 417.41L671.391 371.727" stroke="#4D2C5E" stroke-opacity="0.1" stroke-width="3.16725" stroke-miterlimit="10" stroke-linecap="round" stroke-linejoin="round"/>
</svg>
