<svg width="12" height="12" viewBox="0 0 12 12" fill="none" xmlns="http://www.w3.org/2000/svg">
<g clip-path="url(#clip0_435_1523)">
<path d="M8.8062 7.75758C9.53242 6.7666 9.85769 5.53795 9.71693 4.31745C9.57617 3.09694 8.97976 1.97459 8.04702 1.17493C7.11428 0.375278 5.91401 -0.0427102 4.68632 0.00459462C3.45864 0.0518995 2.29409 0.561008 1.42565 1.43007C0.557211 2.29913 0.0489347 3.46404 0.00250834 4.69176C-0.043918 5.91948 0.374929 7.11945 1.17525 8.05162C1.97558 8.98378 3.09836 9.57938 4.31896 9.71927C5.53957 9.85916 6.76798 9.53301 7.75845 8.80608H7.7577C7.7802 8.83608 7.8042 8.86458 7.8312 8.89233L10.7187 11.7798C10.8593 11.9206 11.0501 11.9997 11.2491 11.9997C11.448 11.9998 11.6388 11.9208 11.7796 11.7802C11.9203 11.6396 11.9994 11.4488 11.9995 11.2498C11.9995 11.0509 11.9206 10.8601 11.7799 10.7193L8.89245 7.83183C8.86563 7.80469 8.8368 7.77962 8.8062 7.75683V7.75758ZM8.9997 4.87458C8.9997 5.41629 8.893 5.95268 8.6857 6.45315C8.4784 6.95362 8.17455 7.40836 7.79151 7.7914C7.40847 8.17444 6.95373 8.47828 6.45327 8.68559C5.9528 8.89289 5.4164 8.99958 4.8747 8.99958C4.33299 8.99958 3.7966 8.89289 3.29613 8.68559C2.79566 8.47828 2.34092 8.17444 1.95788 7.7914C1.57484 7.40836 1.27099 6.95362 1.06369 6.45315C0.856393 5.95268 0.749697 5.41629 0.749697 4.87458C0.749697 3.78057 1.18429 2.73136 1.95788 1.95777C2.73147 1.18418 3.78068 0.749587 4.8747 0.749587C5.96872 0.749587 7.01793 1.18418 7.79151 1.95777C8.5651 2.73136 8.9997 3.78057 8.9997 4.87458Z" fill="#28166F"/>
</g>
<defs>
<clipPath id="clip0_435_1523">
<rect width="12" height="12" fill="white"/>
</clipPath>
</defs>
</svg>
