<svg width="11" height="12" viewBox="0 0 11 12" fill="none" xmlns="http://www.w3.org/2000/svg">
<path d="M5.86684 0.834474C6.01793 0.834474 6.15308 0.928519 6.20396 1.06933L6.56678 2.07505C6.6968 2.10742 6.80831 2.1398 6.90287 2.17372C7.00617 2.21072 7.13927 2.26673 7.30372 2.34331L8.14858 1.89621C8.21755 1.85967 8.2965 1.84648 8.37359 1.85862C8.45068 1.87076 8.52176 1.90757 8.57616 1.96353L9.31927 2.73182C9.41794 2.83409 9.44569 2.98363 9.39018 3.11417L8.99396 4.0428C9.05974 4.16356 9.11216 4.26686 9.15225 4.3532C9.19541 4.44724 9.24886 4.57675 9.31258 4.74377L10.2361 5.13947C10.3748 5.19857 10.4607 5.33733 10.4514 5.48585L10.3836 6.55221C10.3789 6.62148 10.3541 6.68787 10.312 6.74314C10.27 6.79841 10.2127 6.84013 10.1472 6.86312L9.2725 7.17403C9.24732 7.2948 9.22111 7.3981 9.19336 7.48546C9.1486 7.62038 9.09749 7.75312 9.04021 7.88322L9.4796 8.85451C9.51062 8.92275 9.51896 8.99913 9.50343 9.07247C9.48789 9.1458 9.44929 9.21223 9.39327 9.26204L8.55765 10.0082C8.50262 10.0572 8.43395 10.0881 8.36084 10.0969C8.28773 10.1057 8.21367 10.092 8.14858 10.0576L7.28728 9.60122C7.15252 9.67257 7.0135 9.73555 6.87101 9.78982L6.49483 9.93063L6.16079 10.8557C6.13604 10.9234 6.09139 10.9821 6.03269 11.024C5.97399 11.0659 5.904 11.0891 5.83189 11.0905L4.85547 11.1126C4.78145 11.1146 4.70864 11.0935 4.64707 11.0524C4.5855 11.0112 4.5382 10.952 4.51166 10.8829L4.11801 9.84121C3.9837 9.79531 3.85072 9.74561 3.71922 9.69218C3.61167 9.64563 3.50574 9.59541 3.40162 9.5416L2.4252 9.9589C2.36086 9.98634 2.28993 9.9945 2.22105 9.98236C2.15216 9.97023 2.08829 9.93833 2.0372 9.89055L1.31465 9.2127C1.26085 9.16245 1.22422 9.09657 1.20992 9.02435C1.19563 8.95214 1.2044 8.87727 1.23499 8.81031L1.65485 7.89556C1.59901 7.78721 1.54724 7.67682 1.49965 7.5646C1.4441 7.42725 1.39269 7.28826 1.34548 7.14782L0.425587 6.86774C0.350814 6.84514 0.285596 6.79849 0.240062 6.73502C0.194527 6.67155 0.171224 6.59482 0.173773 6.51675L0.209746 5.52953C0.212307 5.46512 0.232428 5.40263 0.267935 5.34883C0.303442 5.29502 0.352982 5.25195 0.411198 5.22427L1.37632 4.76072C1.42103 4.59679 1.46008 4.46934 1.49451 4.37632C1.543 4.25208 1.59684 4.13 1.65588 4.01042L1.23756 3.1265C1.20581 3.05937 1.19617 2.98391 1.21003 2.91096C1.22388 2.83801 1.26051 2.77133 1.31465 2.72051L2.03617 2.03907C2.08675 1.99137 2.15004 1.95929 2.21842 1.94671C2.2868 1.93413 2.35736 1.94158 2.4216 1.96815L3.397 2.37106C3.50492 2.29911 3.60256 2.24104 3.69095 2.19427C3.7963 2.13826 3.93712 2.07967 4.11441 2.01646L4.45359 1.07036C4.47867 1.00112 4.5245 0.941305 4.58484 0.899088C4.64518 0.85687 4.71707 0.834305 4.79072 0.834474H5.86684ZM5.61502 1.54212H5.04304L4.73213 2.41268C4.71385 2.46344 4.68427 2.50939 4.64563 2.54705C4.607 2.58471 4.56031 2.61309 4.50909 2.63007C4.28503 2.70458 4.12315 2.76882 4.02859 2.81867C3.92838 2.8716 3.80042 2.95229 3.6483 3.06021C3.59851 3.09515 3.54071 3.11695 3.48025 3.1236C3.41979 3.13025 3.35863 3.12152 3.30244 3.09823L2.36199 2.71023L1.99557 3.05661L2.37741 3.86344C2.40027 3.91145 2.41187 3.96403 2.41134 4.0172C2.4108 4.07037 2.39814 4.12271 2.37432 4.17025C2.27154 4.37632 2.20216 4.52844 2.16722 4.62197C2.11363 4.77767 2.06733 4.93578 2.02846 5.09579C2.01555 5.14587 1.99184 5.19252 1.95899 5.23247C1.92615 5.27242 1.88496 5.3047 1.83832 5.32705L0.918424 5.7685L0.899924 6.27213L1.73245 6.52497C1.84294 6.55837 1.93031 6.64317 1.9668 6.75212C2.04902 6.99879 2.1148 7.18071 2.16208 7.2948C2.22473 7.43958 2.29401 7.5814 2.3697 7.7198C2.39531 7.76742 2.40952 7.82033 2.41121 7.87437C2.4129 7.92841 2.40204 7.9821 2.37946 8.03123L1.99352 8.87301L2.35891 9.2163L3.27469 8.8247C3.32402 8.80362 3.37742 8.79379 3.43102 8.79593C3.48462 8.79806 3.53708 8.8121 3.58457 8.83704C3.77215 8.93571 3.91193 9.00406 4.00033 9.04157C4.09026 9.07909 4.26242 9.14178 4.51218 9.22709C4.56176 9.24402 4.607 9.27168 4.64466 9.3081C4.68232 9.34453 4.71149 9.38881 4.73007 9.43779L5.09392 10.3993L5.5698 10.389L5.8766 9.53903C5.89415 9.49053 5.92204 9.44642 5.95833 9.40977C5.99463 9.37312 6.03846 9.34481 6.08679 9.32679L6.61971 9.12739C6.75435 9.07754 6.91778 8.99892 7.10844 8.891C7.16121 8.86135 7.22058 8.84544 7.2811 8.84472C7.34162 8.844 7.40135 8.8585 7.45481 8.88689L8.26524 9.316L8.72108 8.9095L8.32228 8.02917C8.3018 7.98398 8.29117 7.93495 8.29108 7.88534C8.29099 7.83572 8.30145 7.78665 8.32177 7.74139C8.4153 7.53223 8.47851 7.37446 8.51038 7.27373C8.54172 7.17506 8.5741 7.03271 8.60545 6.84976C8.61623 6.78761 8.64339 6.72947 8.68413 6.68132C8.72487 6.63317 8.77772 6.59676 8.83722 6.57584L9.68414 6.27521L9.72114 5.68935L8.88861 5.3327C8.84429 5.31384 8.80426 5.28616 8.77095 5.25135C8.73765 5.21655 8.71176 5.17534 8.69487 5.13022C8.6355 4.96641 8.57071 4.80461 8.50061 4.6451C8.43424 4.5062 8.36224 4.37007 8.28477 4.23705C8.25793 4.19006 8.24234 4.13748 8.23922 4.08345C8.2361 4.02942 8.24553 3.9754 8.26678 3.92563L8.63937 3.05198L8.24674 2.646L7.48205 3.05096C7.43212 3.07743 7.37669 3.09183 7.32019 3.09299C7.26369 3.09415 7.20771 3.08204 7.15674 3.05764C6.99443 2.97693 6.82843 2.90388 6.65928 2.83871C6.51505 2.79028 6.36796 2.7508 6.21886 2.72051C6.1597 2.70797 6.1047 2.68059 6.05903 2.64094C6.01337 2.6013 5.97853 2.55069 5.9578 2.49388L5.61451 1.54161L5.61502 1.54212ZM5.32518 3.73342C6.57654 3.73342 7.59151 4.73708 7.59151 5.97457C7.59151 7.21206 6.57654 8.21521 5.32518 8.21521C4.0733 8.21521 3.05885 7.21206 3.05885 5.97457C3.05885 4.73708 4.0733 3.73394 5.32518 3.73394V3.73342ZM5.32518 4.44159C4.4685 4.44159 3.77421 5.12765 3.77421 5.97457C3.77421 6.82149 4.4685 7.50807 5.32518 7.50807C6.18135 7.50807 6.87564 6.82149 6.87564 5.97457C6.87564 5.12765 6.18186 4.44159 5.32518 4.44159Z" fill="#656565"/>
</svg>
