<svg width="37" height="37" viewBox="0 0 37 37" fill="none" xmlns="http://www.w3.org/2000/svg">
<path d="M12.8613 14.0415H24.7363M12.8613 19.979H21.7676M27.7051 6.61963C28.8861 6.61963 30.0188 7.0888 30.8539 7.92392C31.689 8.75904 32.1582 9.89171 32.1582 11.0728V22.9478C32.1582 24.1288 31.689 25.2615 30.8539 26.0966C30.0188 26.9317 28.8861 27.4009 27.7051 27.4009H20.2832L12.8613 31.854V27.4009H9.89258C8.71154 27.4009 7.57887 26.9317 6.74374 26.0966C5.90862 25.2615 5.43945 24.1288 5.43945 22.9478V11.0728C5.43945 9.89171 5.90862 8.75904 6.74374 7.92392C7.57887 7.0888 8.71154 6.61963 9.89258 6.61963H27.7051Z" stroke="black" stroke-width="2.96875" stroke-linecap="round" stroke-linejoin="round"/>
</svg>
