<svg width="45" height="36" viewBox="0 0 45 36" fill="none" xmlns="http://www.w3.org/2000/svg">
<g clip-path="url(#clip0_693_2657)">
<path d="M6.90488 15.6555C9.32248 15.6555 11.2881 13.6899 11.2881 11.2723C11.2881 8.85465 9.32248 6.88906 6.90488 6.88906C4.48727 6.88906 2.52168 8.85465 2.52168 11.2723C2.52168 13.6899 4.48727 15.6555 6.90488 15.6555ZM37.5873 15.6555C40.0049 15.6555 41.9705 13.6899 41.9705 11.2723C41.9705 8.85465 40.0049 6.88906 37.5873 6.88906C35.1697 6.88906 33.2041 8.85465 33.2041 11.2723C33.2041 13.6899 35.1697 15.6555 37.5873 15.6555ZM39.7789 17.8471H35.3957C34.1903 17.8471 33.1013 18.3333 32.3069 19.1209C35.0669 20.6345 37.0257 23.3671 37.4503 26.6135H41.9705C43.1827 26.6135 44.1621 25.6341 44.1621 24.4219V22.2303C44.1621 19.8126 42.1965 17.8471 39.7789 17.8471ZM22.2461 17.8471C26.4855 17.8471 29.9167 14.4158 29.9167 10.1765C29.9167 5.93708 26.4855 2.50586 22.2461 2.50586C18.0067 2.50586 14.5755 5.93708 14.5755 10.1765C14.5755 14.4158 18.0067 17.8471 22.2461 17.8471ZM27.5059 20.0387H26.9375C25.5129 20.7235 23.9309 21.1345 22.2461 21.1345C20.5613 21.1345 18.9861 20.7235 17.5547 20.0387H16.9862C12.6304 20.0387 9.09648 23.5726 9.09648 27.9284V29.9009C9.09648 31.7158 10.569 33.1883 12.3839 33.1883H32.1083C33.9232 33.1883 35.3957 31.7158 35.3957 29.9009V27.9284C35.3957 23.5726 31.8617 20.0387 27.5059 20.0387ZM12.1853 19.1209C11.3908 18.3333 10.3019 17.8471 9.09648 17.8471H4.71328C2.29567 17.8471 0.330078 19.8126 0.330078 22.2303V24.4219C0.330078 25.6341 1.30945 26.6135 2.52168 26.6135H7.035C7.46647 23.3671 9.42522 20.6345 12.1853 19.1209Z" fill="white"/>
</g>
<defs>
<clipPath id="clip0_693_2657">
<rect width="43.832" height="35.0656" fill="white" transform="translate(0.329102 0.314453)"/>
</clipPath>
</defs>
</svg>
