<svg width="23" height="23" viewBox="0 0 23 23" fill="none" xmlns="http://www.w3.org/2000/svg">
<path d="M1.91602 8.62484C1.91602 6.81742 1.91602 5.91467 2.4776 5.35309C3.03918 4.7915 3.94193 4.7915 5.74935 4.7915H17.2493C19.0568 4.7915 19.9595 4.7915 20.5211 5.35309C21.0827 5.91467 21.0827 6.81742 21.0827 8.62484C21.0827 9.07621 21.0827 9.30238 20.9428 9.44325C20.8019 9.58317 20.5748 9.58317 20.1243 9.58317H2.87435C2.42297 9.58317 2.19681 9.58317 2.05593 9.44325C1.91602 9.30238 1.91602 9.07525 1.91602 8.62484ZM1.91602 17.2498C1.91602 19.0573 1.91602 19.96 2.4776 20.5216C3.03918 21.0832 3.94193 21.0832 5.74935 21.0832H17.2493C19.0568 21.0832 19.9595 21.0832 20.5211 20.5216C21.0827 19.96 21.0827 19.0573 21.0827 17.2498V12.4582C21.0827 12.0068 21.0827 11.7806 20.9428 11.6398C20.8019 11.4998 20.5748 11.4998 20.1243 11.4998H2.87435C2.42297 11.4998 2.19681 11.4998 2.05593 11.6398C1.91602 11.7806 1.91602 12.0078 1.91602 12.4582V17.2498Z" fill="#FF6F00"/>
<path d="M6.70703 2.875V5.75M16.2904 2.875V5.75" stroke="#FF6F00" stroke-width="2" stroke-linecap="round"/>
</svg>
