<svg width="23" height="23" viewBox="0 0 23 23" fill="none" xmlns="http://www.w3.org/2000/svg">
<path d="M8.86458 12.4582C8.86458 13.5171 8.00688 14.3748 6.94792 14.3748C5.88896 14.3748 5.03125 13.5171 5.03125 12.4582C5.03125 11.3992 5.88896 10.5415 6.94792 10.5415C8.00688 10.5415 8.86458 11.3992 8.86458 12.4582Z" fill="#FF6F00"/>
<path fill-rule="evenodd" clip-rule="evenodd" d="M6.94792 13.4165C7.20208 13.4165 7.44584 13.3155 7.62556 13.1358C7.80528 12.9561 7.90625 12.7123 7.90625 12.4582C7.90625 12.204 7.80528 11.9602 7.62556 11.7805C7.44584 11.6008 7.20208 11.4998 6.94792 11.4998C6.69375 11.4998 6.45 11.6008 6.27027 11.7805C6.09055 11.9602 5.98958 12.204 5.98958 12.4582C5.98958 12.7123 6.09055 12.9561 6.27027 13.1358C6.45 13.3155 6.69375 13.4165 6.94792 13.4165ZM6.94792 14.3748C8.00688 14.3748 8.86458 13.5171 8.86458 12.4582C8.86458 11.3992 8.00688 10.5415 6.94792 10.5415C5.88896 10.5415 5.03125 11.3992 5.03125 12.4582C5.03125 13.5171 5.88896 14.3748 6.94792 14.3748Z" fill="#FF6F00"/>
<path d="M2.875 17.5118C2.875 16.0628 5.58852 15.3335 6.94792 15.3335C8.30731 15.3335 11.0208 16.0633 11.0208 17.5113V20.1252H2.875V17.5118Z" fill="#FF6F00"/>
<path fill-rule="evenodd" clip-rule="evenodd" d="M3.99337 17.242C3.84196 17.3915 3.83333 17.4773 3.83333 17.5118V19.1668H10.0625V17.5113C10.0625 17.4778 10.0539 17.3915 9.90246 17.242C9.74242 17.0844 9.4784 16.9152 9.11662 16.7605C8.38829 16.4485 7.49896 16.2918 6.94792 16.2918C6.39687 16.2918 5.50706 16.4485 4.77921 16.7605C4.41744 16.9152 4.15342 17.0844 3.99337 17.242ZM6.94792 15.3335C5.58852 15.3335 2.875 16.0633 2.875 17.5113V20.1252H11.0208V17.5113C11.0208 16.0637 8.30731 15.3335 6.94792 15.3335Z" fill="#FF6F00"/>
<path d="M17.9691 12.4582C17.9691 13.5171 17.1114 14.3748 16.0524 14.3748C14.9935 14.3748 14.1357 13.5171 14.1357 12.4582C14.1357 11.3992 14.9935 10.5415 16.0524 10.5415C17.1114 10.5415 17.9691 11.3992 17.9691 12.4582Z" fill="#FF6F00"/>
<path fill-rule="evenodd" clip-rule="evenodd" d="M16.0524 13.4165C16.3066 13.4165 16.5503 13.3155 16.7301 13.1358C16.9098 12.9561 17.0107 12.7123 17.0107 12.4582C17.0107 12.204 16.9098 11.9602 16.7301 11.7805C16.5503 11.6008 16.3066 11.4998 16.0524 11.4998C15.7982 11.4998 15.5545 11.6008 15.3748 11.7805C15.195 11.9602 15.0941 12.204 15.0941 12.4582C15.0941 12.7123 15.195 12.9561 15.3748 13.1358C15.5545 13.3155 15.7982 13.4165 16.0524 13.4165ZM16.0524 14.3748C17.1114 14.3748 17.9691 13.5171 17.9691 12.4582C17.9691 11.3992 17.1114 10.5415 16.0524 10.5415C14.9935 10.5415 14.1357 11.3992 14.1357 12.4582C14.1357 13.5171 14.9935 14.3748 16.0524 14.3748Z" fill="#FF6F00"/>
<path d="M13.4163 11.5002C13.4163 12.5591 12.5586 13.4168 11.4997 13.4168C10.4407 13.4168 9.58301 12.5591 9.58301 11.5002C9.58301 10.4412 10.4407 9.5835 11.4997 9.5835C12.5586 9.5835 13.4163 10.4412 13.4163 11.5002Z" fill="#FF6F00"/>
<path fill-rule="evenodd" clip-rule="evenodd" d="M11.4997 12.4585C11.7538 12.4585 11.9976 12.3575 12.1773 12.1778C12.357 11.9981 12.458 11.7543 12.458 11.5002C12.458 11.246 12.357 11.0022 12.1773 10.8225C11.9976 10.6428 11.7538 10.5418 11.4997 10.5418C11.2455 10.5418 11.0018 10.6428 10.822 10.8225C10.6423 11.0022 10.5413 11.246 10.5413 11.5002C10.5413 11.7543 10.6423 11.9981 10.822 12.1778C11.0018 12.3575 11.2455 12.4585 11.4997 12.4585ZM11.4997 13.4168C12.5586 13.4168 13.4163 12.5591 13.4163 11.5002C13.4163 10.4412 12.5586 9.5835 11.4997 9.5835C10.4407 9.5835 9.58301 10.4412 9.58301 11.5002C9.58301 12.5591 10.4407 13.4168 11.4997 13.4168Z" fill="#FF6F00"/>
<path d="M11.0211 6.14915C11.0211 5.53495 10.7771 4.94592 10.3428 4.51162C9.90852 4.07732 9.31949 3.83333 8.70529 3.83333H7.18682C6.5585 3.83232 5.95495 4.07827 5.50631 4.51816C5.05766 4.95804 4.79986 5.55662 4.78848 6.18483C4.7771 6.81305 5.01306 7.42057 5.44548 7.87641C5.8779 8.33226 6.47215 8.5999 7.10009 8.62165L7.18777 8.625V9.58333C7.18777 9.58333 11.0211 9.02415 11.0211 6.14915ZM12.4586 5.38392C12.4586 4.71851 12.7229 4.08036 13.1935 3.60984C13.664 3.13933 14.3021 2.875 14.9675 2.875H17.7294C18.3649 2.875 18.9742 3.12742 19.4236 3.57672C19.8729 4.02603 20.1253 4.63542 20.1253 5.27083C20.1253 5.90625 19.8729 6.51564 19.4236 6.96494C18.9742 7.41425 18.3649 7.66667 17.7294 7.66667H16.7711V9.10417C16.7711 9.10417 12.4586 8.4985 12.4586 5.38392ZM11.9794 17.5116C11.9794 16.0626 14.693 15.3333 16.0524 15.3333C17.4118 15.3333 20.1253 16.0631 20.1253 17.5111V20.125H11.9794V17.5116Z" fill="#FF6F00"/>
<path fill-rule="evenodd" clip-rule="evenodd" d="M13.0977 17.2419C12.9462 17.3914 12.9376 17.4771 12.9376 17.5116V19.1667H19.1668V17.5111C19.1668 17.4776 19.1582 17.3914 19.0067 17.2419C18.8467 17.0842 18.5827 16.9151 18.2209 16.7603C17.4926 16.4484 16.6032 16.2917 16.0522 16.2917C15.5012 16.2917 14.6113 16.4484 13.8835 16.7603C13.5217 16.9151 13.2577 17.0842 13.0977 17.2419ZM16.0522 15.3333C14.6928 15.3333 11.9793 16.0631 11.9793 17.5111V20.125H20.1251V17.5111C20.1251 16.0636 17.4116 15.3333 16.0522 15.3333ZM11.5001 16.5528C11.5001 15.7492 10.6151 15.1666 9.58105 14.8072C10.1811 14.5235 10.8364 14.3759 11.5001 14.375C12.1638 14.3759 12.8191 14.5235 13.4192 14.8072C12.3851 15.1666 11.5001 15.7492 11.5001 16.5528Z" fill="#FF6F00"/>
<path fill-rule="evenodd" clip-rule="evenodd" d="M11.5001 16.5528C11.5001 16.1249 11.7512 15.7593 12.1422 15.457L12.2098 15.4066C12.5437 15.1642 12.9668 14.9644 13.4192 14.8077C12.9704 14.5961 12.49 14.4593 11.997 14.4028C11.6668 14.3657 11.3334 14.3657 11.0032 14.4028C10.5103 14.4592 10.0299 14.5958 9.58105 14.8072C10.0329 14.9644 10.4565 15.1642 10.79 15.4062C10.813 15.4228 10.8355 15.4397 10.8576 15.457C11.249 15.7588 11.5001 16.1249 11.5001 16.5528Z" fill="#FF6F00"/>
</svg>
