<svg width="23" height="23" viewBox="0 0 23 23" fill="none" xmlns="http://www.w3.org/2000/svg">
<path d="M8.86458 12.4582C8.86458 13.5171 8.00688 14.3748 6.94792 14.3748C5.88896 14.3748 5.03125 13.5171 5.03125 12.4582C5.03125 11.3992 5.88896 10.5415 6.94792 10.5415C8.00688 10.5415 8.86458 11.3992 8.86458 12.4582Z" fill="#FF6F00"/>
<path fill-rule="evenodd" clip-rule="evenodd" d="M6.94792 13.4165C7.20208 13.4165 7.44584 13.3155 7.62556 13.1358C7.80528 12.9561 7.90625 12.7123 7.90625 12.4582C7.90625 12.204 7.80528 11.9602 7.62556 11.7805C7.44584 11.6008 7.20208 11.4998 6.94792 11.4998C6.69375 11.4998 6.45 11.6008 6.27027 11.7805C6.09055 11.9602 5.98958 12.204 5.98958 12.4582C5.98958 12.7123 6.09055 12.9561 6.27027 13.1358C6.45 13.3155 6.69375 13.4165 6.94792 13.4165ZM6.94792 14.3748C8.00688 14.3748 8.86458 13.5171 8.86458 12.4582C8.86458 11.3992 8.00688 10.5415 6.94792 10.5415C5.88896 10.5415 5.03125 11.3992 5.03125 12.4582C5.03125 13.5171 5.88896 14.3748 6.94792 14.3748Z" fill="#FF6F00"/>
<path d="M2.875 17.5118C2.875 16.0628 5.58852 15.3335 6.94792 15.3335C8.30731 15.3335 11.0208 16.0633 11.0208 17.5113V20.1252H2.875V17.5118Z" fill="#FF6F00"/>
<path fill-rule="evenodd" clip-rule="evenodd" d="M3.99337 17.242C3.84196 17.3915 3.83333 17.4773 3.83333 17.5118V19.1668H10.0625V17.5113C10.0625 17.4778 10.0539 17.3915 9.90246 17.242C9.74242 17.0844 9.4784 16.9152 9.11662 16.7605C8.38829 16.4485 7.49896 16.2918 6.94792 16.2918C6.39687 16.2918 5.50706 16.4485 4.77921 16.7605C4.41744 16.9152 4.15342 17.0844 3.99337 17.242ZM6.94792 15.3335C5.58852 15.3335 2.875 16.0633 2.875 17.5113V20.1252H11.0208V17.5113C11.0208 16.0637 8.30731 15.3335 6.94792 15.3335Z" fill="#FF6F00"/>
<path d="M17.9681 12.4582C17.9681 13.5171 17.1104 14.3748 16.0514 14.3748C14.9925 14.3748 14.1348 13.5171 14.1348 12.4582C14.1348 11.3992 14.9925 10.5415 16.0514 10.5415C17.1104 10.5415 17.9681 11.3992 17.9681 12.4582Z" fill="#FF6F00"/>
<path fill-rule="evenodd" clip-rule="evenodd" d="M16.0514 13.4165C16.3056 13.4165 16.5494 13.3155 16.7291 13.1358C16.9088 12.9561 17.0098 12.7123 17.0098 12.4582C17.0098 12.204 16.9088 11.9602 16.7291 11.7805C16.5494 11.6008 16.3056 11.4998 16.0514 11.4998C15.7973 11.4998 15.5535 11.6008 15.3738 11.7805C15.1941 11.9602 15.0931 12.204 15.0931 12.4582C15.0931 12.7123 15.1941 12.9561 15.3738 13.1358C15.5535 13.3155 15.7973 13.4165 16.0514 13.4165ZM16.0514 14.3748C17.1104 14.3748 17.9681 13.5171 17.9681 12.4582C17.9681 11.3992 17.1104 10.5415 16.0514 10.5415C14.9925 10.5415 14.1348 11.3992 14.1348 12.4582C14.1348 13.5171 14.9925 14.3748 16.0514 14.3748Z" fill="#FF6F00"/>
<path d="M13.4173 11.5002C13.4173 12.5591 12.5596 13.4168 11.5007 13.4168C10.4417 13.4168 9.58398 12.5591 9.58398 11.5002C9.58398 10.4412 10.4417 9.5835 11.5007 9.5835C12.5596 9.5835 13.4173 10.4412 13.4173 11.5002Z" fill="#FF6F00"/>
<path fill-rule="evenodd" clip-rule="evenodd" d="M11.5007 12.4585C11.7548 12.4585 11.9986 12.3575 12.1783 12.1778C12.358 11.9981 12.459 11.7543 12.459 11.5002C12.459 11.246 12.358 11.0022 12.1783 10.8225C11.9986 10.6428 11.7548 10.5418 11.5007 10.5418C11.2465 10.5418 11.0027 10.6428 10.823 10.8225C10.6433 11.0022 10.5423 11.246 10.5423 11.5002C10.5423 11.7543 10.6433 11.9981 10.823 12.1778C11.0027 12.3575 11.2465 12.4585 11.5007 12.4585ZM11.5007 13.4168C12.5596 13.4168 13.4173 12.5591 13.4173 11.5002C13.4173 10.4412 12.5596 9.5835 11.5007 9.5835C10.4417 9.5835 9.58398 10.4412 9.58398 11.5002C9.58398 12.5591 10.4417 13.4168 11.5007 13.4168Z" fill="#FF6F00"/>
<path d="M11.0201 6.14915C11.0201 5.53495 10.7761 4.94592 10.3418 4.51162C9.90755 4.07732 9.31851 3.83333 8.70432 3.83333H7.18584C6.55752 3.83232 5.95398 4.07827 5.50533 4.51816C5.05669 4.95804 4.79888 5.55662 4.7875 6.18483C4.77612 6.81305 5.01208 7.42057 5.4445 7.87641C5.87693 8.33226 6.47117 8.5999 7.09911 8.62165L7.1868 8.625V9.58333C7.1868 9.58333 11.0201 9.02415 11.0201 6.14915ZM12.4576 5.38392C12.4576 4.71851 12.722 4.08036 13.1925 3.60984C13.663 3.13933 14.3011 2.875 14.9665 2.875H17.7285C18.3639 2.875 18.9733 3.12742 19.4226 3.57672C19.8719 4.02603 20.1243 4.63542 20.1243 5.27083C20.1243 5.90625 19.8719 6.51564 19.4226 6.96494C18.9733 7.41425 18.3639 7.66667 17.7285 7.66667H16.7701V9.10417C16.7701 9.10417 12.4576 8.4985 12.4576 5.38392ZM11.9785 17.5116C11.9785 16.0626 14.692 15.3333 16.0514 15.3333C17.4108 15.3333 20.1243 16.0631 20.1243 17.5111V20.125H11.9785V17.5116Z" fill="#FF6F00"/>
<path fill-rule="evenodd" clip-rule="evenodd" d="M13.0967 17.2419C12.9453 17.3914 12.9366 17.4771 12.9366 17.5116V19.1667H19.1658V17.5111C19.1658 17.4776 19.1572 17.3914 19.0058 17.2419C18.8457 17.0842 18.5817 16.9151 18.2199 16.7603C17.4916 16.4484 16.6023 16.2917 16.0512 16.2917C15.5002 16.2917 14.6104 16.4484 13.8825 16.7603C13.5207 16.9151 13.2567 17.0842 13.0967 17.2419ZM16.0512 15.3333C14.6918 15.3333 11.9783 16.0631 11.9783 17.5111V20.125H20.1241V17.5111C20.1241 16.0636 17.4106 15.3333 16.0512 15.3333ZM11.4991 16.5528C11.4991 15.7492 10.6141 15.1666 9.58008 14.8072C10.1801 14.5235 10.8354 14.3759 11.4991 14.375C12.1629 14.3759 12.8182 14.5235 13.4182 14.8072C12.3842 15.1666 11.4991 15.7492 11.4991 16.5528Z" fill="#FF6F00"/>
<path fill-rule="evenodd" clip-rule="evenodd" d="M11.4991 16.5528C11.4991 16.1249 11.7502 15.7593 12.1412 15.457L12.2088 15.4066C12.5428 15.1642 12.9659 14.9644 13.4182 14.8077C12.9694 14.5961 12.489 14.4593 11.996 14.4028C11.6658 14.3657 11.3325 14.3657 11.0022 14.4028C10.5093 14.4592 10.0289 14.5958 9.58008 14.8072C10.0319 14.9644 10.4555 15.1642 10.789 15.4062C10.812 15.4228 10.8345 15.4397 10.8566 15.457C11.2481 15.7588 11.4991 16.1249 11.4991 16.5528Z" fill="#FF6F00"/>
</svg>
