<svg width="24" height="24" viewBox="0 0 24 24" fill="none" xmlns="http://www.w3.org/2000/svg">
<path d="M11.9995 15.9998V16.0098M11.9995 12.9998C12.4493 13.0011 12.8864 12.8508 13.2402 12.5732C13.594 12.2956 13.8439 11.9068 13.9496 11.4696C14.0552 11.0324 14.0104 10.5724 13.8225 10.1638C13.6345 9.75524 13.3143 9.42195 12.9135 9.21776C12.5157 9.01397 12.0606 8.95079 11.6223 9.03848C11.184 9.12618 10.7883 9.3596 10.4995 9.70076M9.99953 20.7768C9.12939 20.5785 8.29358 20.2519 7.51953 19.8078" stroke="#FF6F00" stroke-width="2" stroke-linecap="round" stroke-linejoin="round"/>
<path d="M13.999 3.22266C15.9872 3.67673 17.7623 4.79235 19.0337 6.38686C20.3051 7.98138 20.9975 9.96031 20.9975 11.9997C20.9975 14.039 20.3051 16.0179 19.0337 17.6125C17.7623 19.207 15.9872 20.3226 13.999 20.7767M4.57805 17.0927C4.03314 16.2998 3.61888 15.4247 3.35105 14.5007M3.12305 10.4997C3.28305 9.54966 3.59105 8.64966 4.02305 7.82466L4.19205 7.51966M6.90605 4.57866C7.84225 3.93553 8.89172 3.47544 9.99905 3.22266" stroke="#FF6F00" stroke-width="2" stroke-linecap="round" stroke-linejoin="round"/>
</svg>
