<svg width="20" height="21" viewBox="0 0 20 21" fill="none" xmlns="http://www.w3.org/2000/svg">
<g clip-path="url(#clip0_1154_3063)">
<path d="M10 3.1709C10.5523 3.1709 11 3.61861 11 4.1709V8.1709C11 8.72318 10.5523 9.1709 10 9.1709C9.44772 9.1709 9 8.72318 9 8.1709V7.1709H3C2.44772 7.1709 2 6.72318 2 6.1709C2 5.61861 2.44772 5.1709 3 5.1709H9V4.1709C9 3.61861 9.44772 3.1709 10 3.1709Z" fill="#FF6F00"/>
<path d="M13 6.1709C13 5.61861 13.4477 5.1709 14 5.1709H21C21.5523 5.1709 22 5.61861 22 6.1709C22 6.72318 21.5523 7.1709 21 7.1709H14C13.4477 7.1709 13 6.72318 13 6.1709Z" fill="#FF6F00"/>
<path d="M16 9.1709C16.5523 9.1709 17 9.61861 17 10.1709V14.1709C17 14.7232 16.5523 15.1709 16 15.1709C15.4477 15.1709 15 14.7232 15 14.1709V13.1709H3C2.44772 13.1709 2 12.7232 2 12.1709C2 11.6186 2.44772 11.1709 3 11.1709H15V10.1709C15 9.61861 15.4477 9.1709 16 9.1709Z" fill="#FF6F00"/>
<path d="M19 12.1709C19 11.6186 19.4477 11.1709 20 11.1709H21C21.5523 11.1709 22 11.6186 22 12.1709C22 12.7232 21.5523 13.1709 21 13.1709H20C19.4477 13.1709 19 12.7232 19 12.1709Z" fill="#FF6F00"/>
<path d="M6 15.1709C6.55228 15.1709 7 15.6186 7 16.1709V20.1709C7 20.7232 6.55228 21.1709 6 21.1709C5.44772 21.1709 5 20.7232 5 20.1709V19.1709H3C2.44772 19.1709 2 18.7232 2 18.1709C2 17.6186 2.44772 17.1709 3 17.1709H5V16.1709C5 15.6186 5.44772 15.1709 6 15.1709Z" fill="#FF6F00"/>
<path d="M9 18.1709C9 17.6186 9.44772 17.1709 10 17.1709H21C21.5523 17.1709 22 17.6186 22 18.1709C22 18.7232 21.5523 19.1709 21 19.1709H10C9.44772 19.1709 9 18.7232 9 18.1709Z" fill="#FF6F00"/>
</g>
<defs>
<clipPath id="clip0_1154_3063">
<rect width="20" height="20" fill="white" transform="translate(0 0.170898)"/>
</clipPath>
</defs>
</svg>
