<svg width="20" height="21" viewBox="0 0 20 21" fill="none" xmlns="http://www.w3.org/2000/svg">
<path fill-rule="evenodd" clip-rule="evenodd" d="M3.33366 7.6696C3.33366 5.36841 5.19914 3.50293 7.50033 3.50293C9.80151 3.50293 11.667 5.36841 11.667 7.6696C11.667 9.97078 9.80151 11.8363 7.50033 11.8363C5.19914 11.8363 3.33366 9.97078 3.33366 7.6696ZM7.50033 5.1696C6.11961 5.1696 5.00033 6.28888 5.00033 7.6696C5.00033 9.05031 6.11961 10.1696 7.50033 10.1696C8.88104 10.1696 10.0003 9.05031 10.0003 7.6696C10.0003 6.28888 8.88104 5.1696 7.50033 5.1696Z" fill="#FF6F00"/>
<path d="M11.667 4.33626C11.667 3.87603 12.0401 3.50293 12.5003 3.50293C14.8015 3.50293 16.667 5.36841 16.667 7.6696C16.667 9.97078 14.8015 11.8363 12.5003 11.8363C12.0401 11.8363 11.667 11.4632 11.667 11.0029C11.667 10.5427 12.0401 10.1696 12.5003 10.1696C13.881 10.1696 15.0003 9.05031 15.0003 7.6696C15.0003 6.28888 13.881 5.1696 12.5003 5.1696C12.0401 5.1696 11.667 4.7965 11.667 4.33626Z" fill="#FF6F00"/>
<path d="M3.50254 13.7859C4.56218 13.0794 5.97804 12.6696 7.50033 12.6696C9.02261 12.6696 10.4385 13.0794 11.4981 13.7859C12.5519 14.4884 13.3337 15.5505 13.3337 16.8363C13.3337 17.2965 12.9606 17.6696 12.5003 17.6696C12.0401 17.6696 11.667 17.2965 11.667 16.8363C11.667 16.2811 11.3294 15.6765 10.5736 15.1726C9.8236 14.6726 8.73946 14.3363 7.50033 14.3363C6.26119 14.3363 5.17705 14.6726 4.42704 15.1726C3.67121 15.6765 3.33366 16.2811 3.33366 16.8363C3.33366 17.2965 2.96056 17.6696 2.50033 17.6696C2.04009 17.6696 1.66699 17.2965 1.66699 16.8363C1.66699 15.5505 2.44873 14.4884 3.50254 13.7859Z" fill="#FF6F00"/>
<path d="M13.3559 13.5014C13.4614 13.0535 13.9101 12.7759 14.3581 12.8814C16.4446 13.3731 18.3337 14.8023 18.3337 16.8362C18.3337 17.2964 17.9606 17.6695 17.5003 17.6695C17.0401 17.6695 16.667 17.2964 16.667 16.8362C16.667 15.9674 15.7733 14.9272 13.9759 14.5037C13.5279 14.3981 13.2503 13.9494 13.3559 13.5014Z" fill="#FF6F00"/>
</svg>
